<?xml version="1.0" standalone="no"?>
<!DOCTYPE svg PUBLIC "-//W3C//DTD SVG 20010904//EN"
 "http://www.w3.org/TR/2001/REC-SVG-20010904/DTD/svg10.dtd">
<svg version="1.0" xmlns="http://www.w3.org/2000/svg"
 width="196.000000pt" height="196.000000pt" viewBox="0 0 196.000000 196.000000"
 preserveAspectRatio="xMidYMid meet">
<metadata>
Created by potrace 1.11, written by Peter Selinger 2001-2013
</metadata>
<g transform="translate(0.000000,196.000000) scale(0.100000,-0.100000)"
fill="#000000" stroke="none">
<path d="M851 1920 c-207 -29 -403 -131 -553 -289 -176 -184 -261 -396 -261
-651 0 -179 36 -319 119 -467 36 -65 150 -213 163 -213 5 0 115 199 246 443
132 243 247 457 258 475 l19 32 -271 0 -270 0 50 -84 c31 -52 49 -93 47 -107
-4 -29 -45 -51 -68 -39 -23 12 -170 261 -170 287 0 42 9 43 416 41 l388 -3 15
-26 c14 -25 6 -41 -249 -515 -144 -269 -276 -510 -291 -536 l-28 -47 44 -31
c69 -47 201 -107 290 -132 114 -31 355 -31 467 0 169 46 265 97 395 211 102
88 168 175 228 296 71 144 88 222 89 405 1 121 -3 171 -18 230 -27 105 -75
216 -132 302 -48 74 -162 195 -220 236 l-32 22 -27 -53 c-15 -28 -97 -177
-181 -330 -85 -152 -164 -305 -175 -340 -31 -88 -30 -195 0 -264 78 -176 310
-233 466 -115 91 70 136 199 106 309 -27 100 -123 191 -227 214 -61 14 -91 43
-79 79 15 49 93 47 197 -6 243 -123 303 -438 121 -634 -268 -290 -753 -78
-720 315 11 123 32 171 275 612 l149 272 -69 31 c-140 62 -352 92 -507 70z"/>
</g>
</svg>
