<svg id="svg4" xmlns="http://www.w3.org/2000/svg" viewBox="0 0 1792 1792" version="1.1">
 <g id="inkscape-icon-9" style="stroke-width:6" transform="matrix(2.0502 0 0 2.0502 -17.289 1011.5)">
  <rect id="rect822-6" style="paint-order:normal;fill:none" height="874.04" width="874.04" y="-493.34" x="8.4326"/>
  <g id="inkscape-logo-6-2" style="stroke-width:8.9884" transform="matrix(1.9448 0 0 1.9448 -69.562 191.76)">
   <path id="path2-5" style="stroke-width:8.9884" d="m261.72-307.12c-11.252-0.0225-22.393 4.0666-30.468 12.332l-134.34 137.47c-45.39 56.21 30.888 49.668 63.588 65.858 11.73 11.99-44.961 20.84-33.231 32.84 11.73 11.99 70.93 23.1 82.68 35.09 11.73 11.99-24.01 24.712-12.28 36.702s38.862 0.6289 43.942 28.309c3.62 19.78 48.889 8.5002 71.029-7.6998 11.73-12-22.439-10.871-10.709-22.861 29.17-29.83 56.33-10.84 66.31-40.73 4.93-14.77-42.942-22.768-31.192-34.758 33.75-19.71 150.4-32.54 95.05-87.89l-139.25-142.33c-8.515-8.175-19.878-12.309-31.131-12.332zm1.2067 13.084c8.0337 0.0425 16.038 3.046 21.803 8.886l53.152 53.981c5.04 5.15 4.969 15.131 2.149 18.001l-26.388-21.11-5.1914 31.259-22.049-11.641-35.31 22.311-11.69-47.031-18.971 32.82h-29c-11.82 0-13.21-14.999-2.4699-25.739 18.76-20.25 40.291-40.891 51.991-52.851 5.88-6.01 13.941-8.9285 21.975-8.886zm-63.827 210.02c3.59 2.23 57.89 13.261 71.16 15.461 4.6 0.97 1.3411 5.7091-4.9989 8.9091-14.3 3.8-83.661-24.37-66.161-24.37zm213.18 37.778c-11.596-0.29304-23.559 5.3127-26.715 16.432 0 6.82 50.248 11.29 50.248-1.6098-3.3562-9.7125-13.301-14.563-23.533-14.822zm-232.44 29.546c-15.748-0.14608-34.224 11.359-20.64 23.125 11.9 10.29 30.281-2.5596 35.791-16.92-3.2428-4.3088-8.9882-6.1484-15.151-6.2056zm199.42 0.89605c-15.34 13.76 1.72 27.72 16.84 18.83 3.37-3.42-0.09-15.41-16.84-18.83z"/>
  </g>
 </g>
</svg>
