<svg id="svg4" xmlns="http://www.w3.org/2000/svg" viewBox="0 0 1792 1792" version="1.1">
 <path id="path5028-2" style="stroke-width:98.35" d="m893.36 6.0098c-227.56 1.8605-446.47 26.492-574.03 85.078 0 0-252.99 113.19-252.99 499.33 0 88.421-1.7155 194.13 1.0748 306.24 9.1876 377.62 69.227 749.8 418.36 842.2 160.98 42.609 299.2 51.523 410.51 45.404 201.86-11.192 315.19-72.045 315.19-72.045l-6.6653-146.46s-144.25 45.496-306.24 39.953c-160.52-5.5048-329.97-17.318-355.93-214.39-2.398-17.31-3.5817-35.814-3.5817-55.253 0 0 157.56 38.524 357.25 47.672 122.11 5.6006 236.59-7.1539 352.9-21.031 223.03-26.632 417.21-164.05 441.62-289.62 38.456-197.8 35.296-482.69 35.296-482.69 0-386.14-253.01-499.33-253.01-499.33-127.5-58.608-346.6-83.239-574.14-85.1zm-448.8 614.81c69.164 0 125.23 56.075 125.23 125.23 0 69.154-56.066 125.23-125.23 125.23-69.155 0-125.21-56.075-125.21-125.23 0-69.154 56.054-125.23 125.21-125.23zm451.44 0c69.154 0 125.23 56.075 125.23 125.23 0 69.154-56.075 125.23-125.23 125.23s-125.23-56.075-125.23-125.23c0-69.154 56.075-125.23 125.23-125.23zm451.43 0c69.155 0 125.23 56.075 125.23 125.23 0 69.154-56.074 125.23-125.23 125.23-69.155 0-125.21-56.075-125.21-125.23 0-69.154 56.054-125.23 125.21-125.23z"/>
</svg>
