<svg id="natron-icon" version="1.1" viewBox="0 0 1792 1792" xmlns="http://www.w3.org/2000/svg">
 <path d="m559.01 216.27a96.045 96.045 0 0 0-83.16 48.027l-336.98 583.68a96.045 96.045 0 0 0 0 96.037l336.98 583.68a96.045 96.045 0 0 0 83.16 48.027h673.97a96.045 96.045 0 0 0 83.176-48.027l336.98-583.68a96.045 96.045 0 0 0 0-96.037l-336.98-583.68a96.045 96.045 0 0 0-83.176-48.027zm7.7734 79.748h658.42a29.759 29.759 0 0 1 25.783 14.867l329.21 570.22a29.759 29.759 0 0 1 0 29.748l-329.21 570.22a29.759 29.759 0 0 1-25.783 14.865h-658.42a29.759 29.759 0 0 1-25.768-14.865l-329.21-570.22a29.759 29.759 0 0 1 0-29.748l329.21-570.22a29.759 29.759 0 0 1 25.768-14.867zm102.05 127.16a81.104 81.104 0 0 0-70.246 40.549l-226.18 391.76a81.104 81.104 0 0 0-10.787 40.549 81.104 81.104 0 0 0 10.787 40.547l226.18 391.76 23.404 40.549v-437.15s0.62902-12.272 8.8008-12.272c3.9948 0 9.4308 6.9339 13.988 14.053a81.104 81.104 0 0 0 1.5938 3.0586l7.0645 12.225 219.11 379.53a81.104 81.104 0 0 0 70.23 40.549h178.39a81.104 81.104 0 0 0 70.246-40.549l226.18-391.76a81.104 81.104 0 0 0 10.787-40.547 81.104 81.104 0 0 0-10.787-40.549l-226.18-391.76-23.404-40.547v437.15s-0.6291 12.27-8.8008 12.27c-3.995 0-9.4308-6.9338-13.988-14.053a81.104 81.104 0 0 0-1.5937-3.0586l-7.0645-12.223-219.11-379.54a81.104 81.104 0 0 0-70.23-40.549z" style="stroke-width:8.0749"/>
</svg>
