<svg id="svg17" class="play-launch-svg" version="1.1" viewBox="0 0 278 278" xmlns="http://www.w3.org/2000/svg" xmlns:xlink="http://www.w3.org/1999/xlink">
  <defs id="defs9">
    <symbol id="outer-jagged">
      <path id="outer-jagged-path" class="outer-jagged" d="m138.97 0.04975a139 139 0 0 0-88.513 32.048l88.513 106.95 23.4-137a139 139 0 0 0-23.4-1.9974zm0 139 71.188-119.12a139 139 0 0 0-22.8-11.094zl138.93 2.0956a139 139 0 0 0 0.0723-2.0956 139 139 0 0 0-19.598-70.759zl109.15 85.816a139 139 0 0 0 11.756-17.836zl-80.098 113.39a139 139 0 0 0 80.098 25.608 139 139 0 0 0 19.002-1.4609zl-138.31-12.68a139 139 0 0 0-0.68925 12.68 139 139 0 0 0 25.319 79.85zl-106.76-88.616a139 139 0 0 0-19.158 30.128z" style="fill-opacity:.56471;fill:inherit;paint-order:markers fill stroke;stroke-width:.99998"/>
    </symbol>
    <symbol id="inner-jagged">
      <path id="inner-jagged-path" class="inner-jagged" d="m225.77 114.79a90.004 90.004 0 0 0-34.879-49.99l-52.058 73.284 89.608-8.3219a90.004 90.004 0 0 0-2.6738-14.972zm-86.936 23.294 86.431 24.563a90.004 90.004 0 0 0 3.1181-16.117zl21.972 87.24a90.004 90.004 0 0 0 1.3229-0.30406 90.004 90.004 0 0 0 40.971-24.116zl-35.383 82.645a90.004 90.004 0 0 0 13.126 4.3636zl-84.344-31.095a90.004 90.004 0 0 0-2.5935 54.388 90.004 90.004 0 0 0 4.0983 11.64zl-15.249-88.628a90.004 90.004 0 0 0-8.0452 1.6909 90.004 90.004 0 0 0-45.703 29.219zl37.532-81.623a90.004 90.004 0 0 0-22.055-6.9358z" style="fill-opacity:.83871;fill:inherit;paint-order:markers fill stroke;stroke-width:3.7796"/>
    </symbol>
    <symbol id="circle">
      <path id="circle-path" class="circle" d="m138.8 62.905a75.541 75.541 0 0 0-75.541 75.545 75.541 75.541 0 0 0 75.541 75.54 75.541 75.541 0 0 0 75.54-75.54 75.541 75.541 0 0 0-75.54-75.545z" style="fill:inherit;paint-order:markers fill stroke;stroke-width:3.7795;fill-opacity: inherit;"/>
    </symbol>
    <symbol id="launch-text">
      <path id="launch-text-path" class="launch-text" d="m179.08 125.81-2.9141 0.31641v23.373h2.9141v-11.877c0.59121-0.92903 1.2247-1.6456 1.9004-2.1523 0.67566-0.50675 1.4468-0.75977 2.3125-0.75977s1.5195 0.24289 1.9629 0.72852c0.46452 0.48563 0.69727 1.3195 0.69727 2.502v11.559h2.9141v-11.971c0-1.5836-0.43313-2.8304-1.2988-3.7383-0.84458-0.90792-2.0286-1.3613-3.5488-1.3613-1.9848 0-3.6304 0.89668-4.9395 2.6914zm-87.627 1.8691v21.82h11.625l0.34765-2.627h-8.968v-19.19zm20.691 4.75c-1.7736 0-3.6945 0.38051-5.7637 1.1406l0.72852 2.1211c1.7736-0.5912 3.2714-0.88672 4.4961-0.88672 1.1824 0 2.0588 0.25302 2.6289 0.75977 0.57009 0.50675 0.85547 1.3527 0.85547 2.5352v1.2344h-2.5645c-2.3437 0-4.1612 0.47563-5.4492 1.4258-1.2669 0.95015-1.8984 2.3123-1.8984 4.0859 0 1.4991 0.47367 2.7135 1.4238 3.6426 0.95014 0.92903 2.2496 1.3926 3.8965 1.3926 2.1959 0 3.8536-0.83392 4.9727-2.502 0.25337 0.80235 0.64401 1.3934 1.1719 1.7734 0.52786 0.38006 1.2242 0.62294 2.0898 0.72852l0.66406-2.0274c-0.46452-0.16891-0.81266-0.4118-1.0449-0.72851-0.23226-0.33784-0.34766-0.84387-0.34766-1.5195v-7.6328c0-1.7736-0.48576-3.1358-1.457-4.0859-0.97126-0.97126-2.4387-1.457-4.4023-1.457zm38.162 0c-1.0557 0-2.0253 0.25302-2.9121 0.75977-0.8657 0.50675-1.5944 1.205-2.1856 2.0918l-0.25391-2.4707h-2.502v16.689h2.9141v-11.844c0.59121-0.95015 1.2247-1.6788 1.9004-2.1856 0.67566-0.50675 1.457-0.75977 2.3438-0.75977 0.8657 0 1.5195 0.24289 1.9629 0.72852s0.66602 1.3195 0.66602 2.502v11.559h2.9121v-11.971c0-1.5836-0.43118-2.8304-1.2969-3.7383-0.84458-0.90792-2.0286-1.3613-3.5488-1.3613zm16.785 0c-1.4991 0-2.7985 0.37038-3.8965 1.1094-1.0768 0.73901-1.9108 1.7733-2.502 3.1035s-0.88672 2.8826-0.88672 4.6562c0 2.6815 0.64366 4.7806 1.9316 6.3008 1.3091 1.5202 3.0943 2.2812 5.3535 2.2812 1.8792 0 3.5794-0.6113 5.0996-1.8359l-1.3301-1.9004c-0.67566 0.4434-1.2889 0.76932-1.8379 0.98047-0.54897 0.19002-1.1501 0.28515-1.8047 0.28515-1.3724 0-2.429-0.4959-3.168-1.4883-0.739-1.0135-1.1074-2.576-1.1074-4.6875 0-2.1114 0.36842-3.7044 1.1074-4.7812 0.76013-1.0768 1.8166-1.6172 3.168-1.6172 0.67566 0 1.287 0.10722 1.8359 0.31836 0.57009 0.19004 1.151 0.49569 1.7422 0.91797l1.3945-1.8379c-0.76012-0.63343-1.5535-1.0868-2.377-1.3613-0.82347-0.2956-1.7303-0.44336-2.7227-0.44336zm-43.23 0.38086v11.971c0 1.6258 0.41092 2.8827 1.2344 3.7695 0.82346 0.8868 1.963 1.3301 3.4199 1.3301 1.1824 0 2.1863-0.23276 3.0098-0.69727 0.82347-0.48563 1.5521-1.2447 2.1856-2.2793l0.2207 2.5957h2.502v-16.689h-2.9141v11.908c-1.1613 1.9214-2.5539 2.8809-4.1797 2.8809-0.90793 0-1.5617-0.2308-1.9629-0.69532-0.40118-0.48562-0.60157-1.2993-0.60157-2.4394v-11.654zm-10.957 8.4551h2.1856v3.832c-0.95016 1.7314-2.2597 2.5977-3.9277 2.5977-0.95015 0-1.6667-0.25302-2.1523-0.75977-0.48563-0.50674-0.72852-1.2557-0.72852-2.248 0-2.2804 1.5403-3.4219 4.623-3.4219z" style="fill:#fff"/>
    </symbol>
    <symbol id="triangle">
      <path id="triangle-path" class="triangle" d="m162.53 138.87-38.347 22.14v-44.281z" style="fill:#fff;paint-order:markers fill stroke;stroke-width:3.7795"/>
    </symbol>
    <filter id="filter4861" x="-.108" y="-.108" width="1.216" height="1.216" style="color-interpolation-filters:sRGB">
      <feGaussianBlur id="feGaussianBlur4863" stdDeviation="6.798735"/>
    </filter>
  </defs>
  <use id="use5136" xlink:href="#outer-jagged"/>
  <use id="use5153" xlink:href="#inner-jagged"/>
  <use id="use5058" transform="matrix(.87266 0 0 .87266 17.674 17.629)" width="100%" height="100%" style="filter:url(#filter4861)" xlink:href="#circle"/>
  <use id="use5231" xlink:href="#circle"/>
  <use id="use5292" xlink:href="#launch-text"/>
  <use id="use5377" xlink:href="#triangle"/>
</svg>
