<svg id="svg17" xmlns="http://www.w3.org/2000/svg" viewBox="0 0 300 330" version="1.1" class="play-launch-svg">
 <g id="g1543" style="stroke-width:2.4222" transform="matrix(1.439 0 0 1.4355 -1124.2 1624.6)">
  <g id="inkscape-icon" style="stroke-width:14.533" transform="matrix(.015136 0 0 .015136 823.38 -939.07)">
   <rect id="rect822" style="paint-order:normal;fill:none" height="874.04" width="874.04" y="-493.34" x="8.4326"/>
   <g id="inkscape-logo-6" style="stroke-width:21.772" transform="matrix(1.9448 0 0 1.9448 -69.562 191.76)">
    <path id="path2" d="m261.72-307.12c-11.252-0.0225-22.393 4.0666-30.468 12.332l-134.34 137.47c-45.39 56.21 30.888 49.668 63.588 65.858 11.73 11.99-44.961 20.84-33.231 32.84 11.73 11.99 70.93 23.1 82.68 35.09 11.73 11.99-24.01 24.712-12.28 36.702s38.862 0.6289 43.942 28.309c3.62 19.78 48.889 8.5002 71.029-7.6998 11.73-12-22.439-10.871-10.709-22.861 29.17-29.83 56.33-10.84 66.31-40.73 4.93-14.77-42.942-22.768-31.192-34.758 33.75-19.71 150.4-32.54 95.05-87.89l-139.25-142.33c-8.515-8.175-19.878-12.309-31.131-12.332zm1.2067 13.084c8.0337 0.0425 16.038 3.046 21.803 8.886l53.152 53.981c5.04 5.15 4.969 15.131 2.149 18.001l-26.388-21.11-5.1914 31.259-22.049-11.641-35.31 22.311-11.69-47.031-18.971 32.82h-29c-11.82 0-13.21-14.999-2.4699-25.739 18.76-20.25 40.291-40.891 51.991-52.851 5.88-6.01 13.941-8.9285 21.975-8.886zm-63.827 210.02c3.59 2.23 57.89 13.261 71.16 15.461 4.6 0.97 1.3411 5.7091-4.9989 8.9091-14.3 3.8-83.661-24.37-66.161-24.37zm213.18 37.778c-11.596-0.29304-23.559 5.3127-26.715 16.432 0 6.82 50.248 11.29 50.248-1.6098-3.3562-9.7125-13.301-14.563-23.533-14.822zm-232.44 29.546c-15.748-0.14608-34.224 11.359-20.64 23.125 11.9 10.29 30.281-2.5596 35.791-16.92-3.2428-4.3088-8.9882-6.1484-15.151-6.2056zm199.42 0.89605c-15.34 13.76 1.72 27.72 16.84 18.83 3.37-3.42-0.09-15.41-16.84-18.83z" style="stroke-width:21.772;fill:#fff"/>
   </g>
  </g>
  <g id="blender-icon" style="stroke-width:14.533" transform="matrix(.015136 0 0 .015136 791.64 -939.07)">
   <rect id="rect822-1-7" style="paint-order:normal;fill:none" height="874.04" width="874.04" y="-493.37" x="1091.7"/>
   <g id="g3387" style="fill:#fff;paint-order:stroke fill markers" transform="matrix(11.634 0 0 11.634 -595.35 -11231)">
    <path id="path3026-3" style="fill:#fff;paint-order:stroke fill markers" d="m184.08 964.06c0.1325-2.3625 1.2912-4.445 3.0362-5.9212 1.7138-1.4501 4.0175-2.3363 6.5338-2.3363 2.5125 0 4.8175 0.8862 6.53 2.3363 1.7462 1.4762 2.9025 3.5587 3.0362 5.9187 0.1325 2.43-0.8425 4.685-2.5562 6.3575-1.7462 1.7012-4.2288 2.77-7.01 2.77-2.7825 0-5.27-1.0688-7.0162-2.77-1.7125-1.6725-2.6862-3.9275-2.5538-6.355"/>
    <path id="path3028-11" style="fill:#fff;paint-order:stroke fill markers" d="m168.84 968.84c0.0163 0.9262 0.31125 2.7224 0.75375 4.1262 0.93 2.9713 2.5075 5.72 4.7038 8.1437 2.2525 2.4888 5.0262 4.49 8.23 5.9088 3.3662 1.4925 7.015 2.2513 10.805 2.245 3.785-0.01 7.4325-0.78 10.8-2.2825 3.2038-1.4325 5.975-3.4425 8.225-5.9338 2.1925-2.4312 3.7688-5.1849 4.7-8.1562 0.47-1.5025 0.765-3.025 0.88375-4.555 0.1175-1.5062 0.0675-3.0138-0.14625-4.5212-0.4175-2.9388-1.4338-5.6938-2.9975-8.2063-1.4325-2.3088-3.2775-4.3312-5.4712-6.0325l0.006-0.002-22.14-17c-0.0188-0.015-0.035-0.0312-0.0563-0.0438-1.4538-1.1162-3.8962-1.1112-5.4925 0.006-1.6162 1.1288-1.8 2.9975-0.36375 4.1775l-0.005 0.005 9.2325 7.5088-28.144 0.0312h-0.0375c-2.3262 0.001-4.5625 1.5275-5.0038 3.4575-0.45625 1.965 1.1238 3.595 3.5425 3.6025l-0.002 0.009 14.264-0.0275-25.455 19.539c-0.0312 0.025-0.0675 0.049-0.0975 0.074-2.4012 1.8375-3.1762 4.8963-1.6638 6.8301 1.5338 1.9687 4.7988 1.9725 7.225 0.011l13.892-11.369s-0.20375 1.5338-0.1875 2.4551zm35.7 5.1412c-2.8638 2.9163-6.87 4.57-11.208 4.5788-4.3425 0.01-8.3488-1.6325-11.212-4.5438-1.3988-1.4188-2.4262-3.05-3.06-4.79-0.62-1.7075-0.8625-3.5212-0.7025-5.3513 0.1525-1.7899 0.68375-3.495 1.535-5.0399 0.835-1.5163 1.9838-2.8888 3.405-4.0488 2.7812-2.2675 6.3238-3.4938 10.03-3.4988 3.7088-0.006 7.2488 1.2112 10.032 3.47 1.4175 1.1549 2.5675 2.5212 3.4025 4.0374 0.85375 1.5425 1.3825 3.2413 1.54 5.0363 0.15625 1.8275-0.085 3.6387-0.705 5.3488-0.635 1.7437-1.6588 3.375-3.0575 4.8012"/>
   </g>
  </g>
  <g id="g4435" style="stroke-width:3.5765" transform="matrix(.67724 0 0 .67724 571.76 -225.89)">
   <rect id="krita-icon" style="paint-order:normal;fill:none" height="19.534" width="19.534" y="-1064.1" x="394.38"/>
   <path id="path3043" style="color-rendering:auto;text-decoration-color:#000000;color:#000000;font-variant-numeric:normal;shape-rendering:auto;solid-color:#000000;text-decoration-line:none;fill:#fff;font-variant-position:normal;mix-blend-mode:normal;font-feature-settings:normal;shape-padding:0;font-variant-alternates:normal;text-indent:0;font-variant-ligatures:normal;dominant-baseline:auto;font-variant-caps:normal;image-rendering:auto;white-space:normal;text-decoration-style:solid;text-orientation:mixed;isolation:auto;text-transform:none" d="m396.9-1061.9c-0.0246 0-0.0432 0-0.0555 0.014-0.37364 0.3737 6.1148 6.554 6.7438 7.1514l0.45121-0.4513c-0.59681-0.6204-6.4158-6.6521-7.1395-6.7149zm7.7312 1.5392c-1.5446 0-2.9695 0.514-4.1143 1.3793 0.082 0.081 0.16361 0.1596 0.24559 0.2404 0.01 0.01 0.0199 0.02 0.03 0.03 1.0729-0.7961 2.4009-1.2675 3.8388-1.2675 3.5614 0 6.4506 2.8893 6.4506 6.4506 0 3.5614-2.8892 6.4508-6.4506 6.4508s-6.4508-2.8894-6.4508-6.4508c0-1.74 0.69108-3.3183 1.812-4.4789-0.0904-0.091-0.17889-0.1806-0.26872-0.2711-1.1907 1.2299-1.925 2.9043-1.925 4.75 0 3.7715 3.0611 6.8327 6.8326 6.8327s6.8327-3.0612 6.8327-6.8327-3.0612-6.8325-6.8327-6.8325zm0 0.5894c-1.381 0-2.6564 0.4488-3.6901 1.2074 1.0894 1.1403 2.2655 2.249 3.3322 3.3825v0.0001c0.6557 0.7156 1.3167 1.4552 1.9731 2.1807h-0.002c0.18993 0.074 0.34055 0.1417 0.55394 0.2328 0.63993 0.2733 1.1757 0.6564 1.4358 1.329 0.29052 0.7513-0.38566 2.0773-1.0815 1.8477 0.35034-0.024 0.72865-0.4536 0.53631-0.7902-0.41756-0.7308-1.8747-0.6348-1.9629-2.101h-0.00074c-0.70343-0.6775-1.4315-1.3553-2.1328-2.0198 0 0-1.7292-1.6383-3.4549-3.3617-1.0832 1.1228-1.7505 2.6494-1.7505 4.3336 0 3.4492 2.7941 6.2433 6.2434 6.2433s6.2432-2.7941 6.2432-6.2433c0-3.4493-2.7938-6.2432-6.243-6.2432zm-0.47678 4.7058-0.44149 0.4413 2.0101 1.9122 0.29429-0.2942z"/>
  </g>
  <g id="gimp-icon" style="stroke-width:14.533" transform="matrix(.16667 0 0 .16667 794.71 -782.38)">
   <rect id="rect822-1" style="paint-order:normal;fill:none" height="79.375" width="79.375" y="-984.96" x="356.94"/>
   <g id="g4313" style="stroke-width:11.582" transform="matrix(.11395 0 0 .11395 401.19 -939.18)">
    <path id="path8887-6" style="stroke-width:300.46;fill:#fff;fill-rule:evenodd" d="m272.89-312.85c-26.019 32.579-68.905 174.94-309.71 181.28-114.91 2.9988-171.83-127.85-171.83-127.85l-9.2981 216.7a107.74 75.127 57.987 0 1 3.5053 4.8312 107.74 75.127 57.987 0 1 0.95599 134.14 107.74 75.127 57.987 0 1 -30.205 10.749c159.17 131.69 604.33 239.09 516.58-419.85zm-410.01 174.18c34.137 0 62.592 25.315 70.692 59.231 13.117-32.057 43.535-54.622 79.028-54.622 47.509 0 85.874 40.422 85.874 89.931 0 49.511-38.365 89.982-85.874 89.982-41.305 0-75.73-30.596-84.019-71.124-11.803 26.297-36.698 44.573-65.701 44.573-40.5 0-73.013-35.627-73.013-78.983 0-43.353 32.514-78.988 73.013-78.988zm0 9.8785c-34.699 0-63.129 30.657-63.129 69.11 0 38.452 28.43 69.155 63.129 69.155 6.0568 0 11.916-0.95411 17.475-2.703a45.28 47.521 0 0 1 -44.544 -47.458 45.28 47.521 0 0 1 45.29 -47.52 45.28 47.521 0 0 1 44.357 37.989c0.38531-3.0937 0.60318-6.2476 0.60318-9.4631 0.000027-38.452-28.481-69.11-63.18-69.11zm149.72 3.4427c-42.579 0-77.219 36.185-77.219 81.219-0.000026 45.034 34.64 81.27 77.219 81.27 16.113 0 31.084-5.1979 43.475-14.089a57.976 60.842 0 0 1 -23.484 5.2523 57.976 60.842 0 0 1 -57.962 -60.87 57.976 60.842 0 0 1 57.962 -60.83 57.976 60.842 0 0 1 57.177 51.054c0.01224-0.59642 0.04554-1.1872 0.04554-1.7868 0.000026-45.034-34.634-81.219-77.213-81.219zm3.9491 44.231a27.186 28.53 0 0 0 -27.181 28.563 27.186 28.53 0 0 0 27.177 28.515 27.186 28.53 0 0 0 27.172 -28.515 27.186 28.53 0 0 0 -27.172 -28.56zm-152.49 5.9066a17.9 18.786 0 0 0 -17.908 18.795 17.9 18.786 0 0 0 17.908 18.79 17.9 18.786 0 0 0 17.862 -18.79 17.9 18.786 0 0 0 -17.862 -18.795zm209.67 114.12s40.189 11.726 54.349 30.905c14.119 19.129 5.2374 30.9 1.5421 55.373-5.47-14.29-10.99-25.427-16.76-31.931-21.899 34.011-83.859 50.211-166.96 42.131 37.269-1.95 66.191-7.77 89.156-15.78-37.83 2.47-86.794-7.36-144.93-28.894 115.16 24.164 173.82 1.76 208.14-26.051-9.067-12.283-24.542-25.749-24.542-25.749z"/>
    <path id="path8893-1" style="color-rendering:auto;text-decoration-color:#000000;color:#000000;font-variant-numeric:normal;shape-rendering:auto;solid-color:#000000;text-decoration-line:none;fill:#fff;font-variant-position:normal;mix-blend-mode:normal;font-feature-settings:normal;shape-padding:0;font-variant-alternates:normal;text-indent:0;font-variant-ligatures:normal;dominant-baseline:auto;font-variant-caps:normal;image-rendering:auto;white-space:normal;text-decoration-style:solid;text-orientation:mixed;isolation:auto;text-transform:none" d="m-337.91-84.729c-17.913 13.562-26.548 36.463-26.368 61.799 0.18014 25.334 9.0366 53.35 26.339 78.518 17.303 25.171 39.871 42.868 62.723 51.039 22.852 8.1688 46.284 6.794 64.197-6.7706 17.913-13.562 26.548-36.463 26.368-61.797-0.18003-25.337-9.0247-53.423-26.327-78.594-17.303-25.171-39.882-42.795-62.735-50.964-22.852-8.1714-46.283-6.794-64.197 6.768zm4.9368 7.1805c15.234-11.533 35.439-13.03 56.377-5.5462 20.938 7.4866 42.298 24.006 58.669 47.822 16.372 23.816 24.573 50.297 24.738 73.512 0.16473 23.212-7.533 42.904-22.767 54.437s-35.468 12.991-56.406 5.5047c-20.938-7.4866-42.298-24.006-58.669-47.822-16.372-23.814-24.573-50.297-24.738-73.509-0.16483-23.215 7.5619-42.862 22.796-54.398z"/>
    <ellipse id="path8897-5" style="stroke-width:300.46;fill:#fff;fill-rule:evenodd" rx="30.206" ry="38.04" cy="-31.138" cx="-309.3"/>
   </g>
  </g>
  <ellipse id="path6800" style="paint-order:markers fill stroke;fill:#00b18e" rx="7.4678" ry="9.0714" cy="-1006.3" cx="827.27"/>
  <path id="path1463" d="m923.59-1020.9a29.024 29.616 0 0 0 -24.379 -13.551 29.024 29.616 0 0 0 -23.447 12.211c0.31617 0.1423 0.2496 0.1247 0.69762 0.3147 0.70215 0.2976 1.5596 0.6461 2.5528 1.0221 0.99322 0.3761 2.122 0.7796 3.3662 1.187 1.2442 0.4075 2.6039 0.8189 4.0592 1.2108s3.006 0.7641 4.6323 1.0935c1.6263 0.3293 3.3282 0.6158 5.0855 0.8356 1.7572 0.2198 3.57 0.3728 5.4183 0.4361 0.92411 0.032 1.8569 0.041 2.7962 0.025 0.93935-0.016 1.8849-0.058 2.8344-0.1282 0.94959-0.07 1.9034-0.1684 2.8582-0.2981 0.95483-0.1298 1.9109-0.291 2.866-0.4863 0.95506-0.1953 1.909-0.4247 2.8593-0.6914 0.95028-0.2667 1.897-0.5707 2.8376-0.9147 0.94051-0.344 1.8746-0.7284 2.8004-1.1555 0.72784-0.3359 1.4457-0.7205 2.1616-1.111z" style="paint-order:markers fill stroke;fill:#aca29e"/>
  <path id="path1280-3-5" d="m923.59-1020.9c-0.71596 0.3905-1.4338 0.7752-2.1616 1.111-0.92575 0.4272-1.8598 0.8115-2.8004 1.1555-0.94052 0.344-1.8873 0.648-2.8376 0.9147-0.95031 0.2667-1.9042 0.4961-2.8593 0.6914-0.95504 0.1953-1.9111 0.3566-2.866 0.4863-0.95483 0.1297-1.9086 0.2281-2.8582 0.2982-0.94959 0.07-1.8951 0.1119-2.8344 0.1281-0.93935 0.016-1.8721 0.01-2.7962-0.025-1.8482-0.063-3.661-0.2164-5.4183-0.4362s-3.4592-0.5063-5.0855-0.8356-3.177-0.7016-4.6323-1.0934c-1.4553-0.3919-2.815-0.8034-4.0592-1.2108-1.2442-0.4075-2.373-0.811-3.3662-1.187-0.99319-0.3761-1.8507-0.7245-2.5528-1.0222-0.44802-0.1899-0.38145-0.1723-0.69762-0.3147a29.024 29.616 0 0 0 -5.5774 17.405 29.024 29.616 0 0 0 29.024 29.616 29.024 29.616 0 0 0 29.025 -29.616 29.024 29.616 0 0 0 -4.6457 -16.065z" style="paint-order:markers fill stroke;fill:#6d605a"/>
  <path id="path1455" d="m989.7-1129s-53.187 42.629-55.726 44.767c-1.2695 1.0691-2.4723 2.1384-3.5414 3.1574s-2.0044 1.9875-2.7394 2.8562c-0.73499 0.8686-9.9725 12.996-19.026 24.906-8.6974 11.441-16.561 21.807-17.219 22.674l14.631 4.8328s18.898-28.159 19.796-29.529c0.89768-1.3702 4.1103-5.4332 4.7718-6.2364 0.66145-0.8033 59.052-67.428 59.052-67.428z" style="fill:#6d605a"/>
  <path id="path1350" d="m985.57-1131.7s-53.491 42.629-56.045 44.767c-2.5536 2.1382-4.8385 4.2762-6.3169 6.0135-1.4784 1.7372-37.162 48.51-37.162 48.51l5.4022 1.7843c0.65786-0.8672 8.5212-11.233 17.219-22.674 9.0538-11.91 18.291-24.038 19.026-24.906 0.73498-0.8687 1.6703-1.8372 2.7394-2.8562s2.2719-2.0883 3.5414-3.1574c2.5391-2.1382 55.726-44.767 55.726-44.767z" style="fill:#aca29e"/>
  <path id="path1475" d="m796.98-994.88-14.074-2.6402s-0.41775-0.11342-0.83666-0.3757c-0.20945-0.13113-0.41931-0.29946-0.57722-0.50951-0.079-0.10504-0.14467-0.22085-0.19119-0.34727-0.0462-0.12549-0.073-0.26162-0.0744-0.40928 0 0.0145 0.32969 4.7341 0.50591 5.7232 0.17647 0.99057 1.4201 1.1782 1.4201 1.1782l10.842 2.2422z" style="fill:#6d605a"/>
  <path id="path1367-6" d="m794.85-1018.2s-11.516 15.645-13.123 17.771c-0.36253 0.47984-0.50186 0.88984-0.49921 1.2325v0.008c0.003 0.14766 0.0282 0.28379 0.0744 0.40928 0.0465 0.12642 0.11224 0.24223 0.19119 0.34727 0.15791 0.21005 0.36777 0.37838 0.57722 0.50951 0.41891 0.26228 0.83666 0.3757 0.83666 0.3757l14.074 2.6402 10.909-17.77z" style="fill:#aca29e"/>
  <path id="path1466" d="m970.05-904.4s-46.722-4.3849-49.729-4.5878c-0.7517-0.0507-1.4248-0.12012-2.0391-0.22841-0.61434-0.10827-1.1698-0.2554-1.6847-0.46043-0.51485-0.20505-0.98903-0.46823-1.4423-0.80925-0.45326-0.34102-0.88562-0.75967-1.3152-1.2759-1.6949-2.0368-25.53-30.8-26.187-31.593l-4.5858 3.8194s23.365 27.785 25.448 30.279c2.0823 2.494 3.4745 2.5389 6.4813 2.7394 3.0068 0.20045 50.707 4.6684 50.707 4.6684z" style="fill:#6d605a"/>
  <path id="path1471" d="m914.68-952.57c-2.2738-4.045-5.0911-9.0604-5.0911-9.0604l-21.937 18.273c0.35496 0.42833 7.411 8.9407 14.152 17.074 0.34933-0.36494 0.70578-0.72742 1.0377-1.0987 0.53422-0.59751 1.0463-1.2026 1.5369-1.8138 0.9811-1.2225 1.8768-2.4693 2.6944-3.728 0.81764-1.2587 1.5572-2.5295 2.2262-3.7992 0.66902-1.2698 1.2677-2.5384 1.803-3.7941 0.53527-1.2557 1.0073-2.4984 1.4237-3.715 0.41635-1.2166 0.777-2.4076 1.0893-3.56 0.31232-1.1524 0.57629-2.2659 0.79942-3.329 0.10697-0.50956 0.17663-0.96475 0.26561-1.4495z" style="fill:#6d605a"/>
  <path id="path1318" d="m914.68-952.57c-0.089 0.48477-0.15864 0.93996-0.26561 1.4495-0.22313 1.063-0.4871 2.1766-0.79942 3.329-0.31234 1.1524-0.67299 2.3434-1.0893 3.56-0.41637 1.2166-0.88842 2.4593-1.4237 3.715s-1.134 2.5243-1.803 3.7941c-0.66903 1.2698-1.4086 2.5406-2.2262 3.7992-0.81764 1.2587-1.7133 2.5054-2.6944 3.728-0.49057 0.61124-1.0026 1.2163-1.5369 1.8138-0.33189 0.37124-0.68834 0.73372-1.0377 1.0987 5.7321 6.9163 11.256 13.582 12.034 14.518 0.42955 0.51623 0.86191 0.93488 1.3152 1.2759 0.45326 0.34102 0.92744 0.6042 1.4423 0.80925 0.51486 0.20503 1.0703 0.35216 1.6847 0.46043 0.61431 0.10829 1.2874 0.17767 2.0391 0.22841 3.0068 0.20297 49.729 4.5878 49.729 4.5878l-49.893-39.593s-1.3226-1.0394-2.8344-3.8742c-0.51644-0.96833-1.4616-2.602-2.6412-4.7005z" style="fill:#aca29e"/>
  <path id="path1495" d="m914.96-1017.6c-0.005 0-1.3823 1.0026-3.837 2.7414-2.4591 1.7419-5.9928 4.2208-10.292 7.1696-4.299 2.9488-9.3631 6.3674-14.883 9.988-2.7599 1.8103-5.6335 3.6711-8.5824 5.549-2.9489 1.878-5.973 3.7732-9.0336 5.6519s-6.1578 3.7411-9.2527 5.5537-6.1875 3.5754-9.2392 5.255-6.0626 3.2756-8.9938 4.7553c-2.9312 1.4796-5.783 2.8427-8.5163 4.0556-1.3666 0.60642-2.7033 1.175-4.006 1.7022-1.3026 0.52718-2.5713 1.013-3.8003 1.4526-1.229 0.43961-2.4185 0.83305-3.5641 1.1767-1.1456 0.34364-2.2469 0.63762-3.2995 0.87693-1.0526 0.23934-2.0561 0.42423-3.006 0.55089s-1.846 0.19489-2.6836 0.2005c-0.83754 0.006-1.6167-0.0514-2.3322-0.17518-0.71546-0.1238-1.3676-0.31414-1.9513-0.57568-0.67768-0.30361-1.3123-0.63854-1.9064-1.002-0.59407-0.36346-1.1474-0.75581-1.6619-1.1746-0.51451-0.41878-0.99039-0.86408-1.4294-1.3338-0.43897-0.46968-0.84127-0.9634-1.2087-1.4795-0.36746-0.5161-0.69998-1.0543-0.99994-1.6123-0.29996-0.55806-0.56706-1.1362-0.80357-1.7317-0.23651-0.59552-0.44251-1.2086-0.6196-1.8371-0.17709-0.62852-0.32533-1.2726-0.44701-1.9296-0.12166-0.65701-0.21702-1.327-0.28731-2.0081-0.0703-0.68109-0.11555-1.3731-0.13849-2.0738-0.0459-1.4013 0-2.8374 0.11832-4.2902 0.11938-1.4528 0.31295-2.9224 0.56534-4.391 0.25241-1.4685 0.56354-2.9358 0.91675-4.3842 0.35322-1.4485 0.74867-2.8779 1.1705-4.2705 0.42182-1.3926 0.86989-2.7484 1.3281-4.0494s0.92671-2.5476 1.3891-3.7212c0.46238-1.1736 0.91858-2.2747 1.3529-3.2851 0.86865-2.0209 1.6491-3.6792 2.2123-4.8328 0.54911-1.1247 0.87-1.7255 0.88675-1.757-1.4485 1.4814-2.889 3.0182-4.3129 4.6586-39.556 45.57 7.9693 104.32 74.167 71.361 45.191-22.5 49.587-58.249 36.981-80.784z" style="fill:#6d605a"/>
  <path id="path1495-3" style="fill:#6d605a" d="m885.93-1035.1c-12.206 0.1015-29.108 4.2228-44.343 21.811-1.0417 1.2027-2.0776 2.45-3.1016 3.7816-28.447 36.994 5.7307 84.688 53.337 57.932 32.5-18.265 35.661-47.287 26.595-65.581-3.588-7.2399-9.0868-12.803-15.447-15.35 0 0-6.8984-2.6788-17.041-2.5945zm-39.648 63.794c-0.68314 0.10283-1.3276 0.15815-1.9299 0.1627-0.60233 0.009-1.1624-0.0416-1.6769-0.1424 0.51453 0.10053 1.0746 0.14691 1.6769 0.1424 0.60231-0.009 1.2468-0.0601 1.9299-0.1627z"/>
  <path id="path1257" d="m869.79-1039.7c-16.972 0.1251-40.475 5.2015-61.66 26.868-0.0167 0.032-0.33764 0.6323-0.88675 1.757-0.56319 1.1536-1.3436 2.8119-2.2123 4.8328-0.43431 1.0104-0.89051 2.1115-1.3529 3.2851-0.46236 1.1736-0.93086 2.4202-1.3891 3.7212-0.45818 1.301-0.90625 2.6568-1.3281 4.0494-0.4218 1.3926-0.81725 2.8221-1.1705 4.2705-0.35321 1.4485-0.66434 2.9157-0.91675 4.3842-0.25239 1.4685-0.44596 2.9381-0.56534 4.391-0.11935 1.4528-0.1642 2.8888-0.11832 4.2902 0.023 0.70067 0.0682 1.3927 0.13849 2.0738 0.0703 0.68109 0.16565 1.3511 0.28731 2.0081 0.12168 0.65704 0.26992 1.3011 0.44701 1.9296 0.17709 0.62849 0.38309 1.2416 0.6196 1.8371s0.50361 1.1736 0.80357 1.7317c0.29996 0.55803 0.63248 1.0962 0.99994 1.6123 0.36745 0.51609 0.76975 1.0098 1.2087 1.4795 0.43897 0.46969 0.91485 0.91499 1.4294 1.3338 0.51451 0.41881 1.0678 0.81116 1.6619 1.1746 0.59409 0.36346 1.2287 0.69839 1.9064 1.002 0.58375 0.26154 1.2358 0.45188 1.9513 0.57568 0.71549 0.12377 1.4946 0.18079 2.3322 0.17518 0.83751-0.006 1.7337-0.0738 2.6836-0.2005 0.94988-0.12666 1.9534-0.31155 3.006-0.55089 1.0526-0.23931 2.1539-0.53329 3.2995-0.87693s2.3352-0.73708 3.5641-1.1767c1.229-0.4396 2.4976-0.92543 3.8003-1.4526 1.3026-0.52721 2.6393-1.0958 4.006-1.7022 2.7332-1.2129 5.5851-2.5759 8.5163-4.0556s5.942-3.0757 8.9938-4.7553c3.0517-1.6796 6.1444-3.4424 9.2392-5.255s6.1921-3.675 9.2527-5.5537 6.0846-3.7739 9.0336-5.6519c2.9489-1.8779 5.8226-3.7387 8.5824-5.549 5.5197-3.6206 10.584-7.0392 14.883-9.988s7.8328-5.4277 10.292-7.1696c2.4547-1.7388 3.832-2.7378 3.837-2.7414-4.9892-8.9183-12.635-15.771-21.479-18.907 0 0-9.5924-3.2996-23.696-3.1957z" style="fill:#aca29e"/>
  <path id="path1504" d="m828.57-970.81c-1.26 0.60597-2.5045 1.2109-3.8354 1.8226-1.9764 0.90831-3.9968 1.8014-5.9598 2.6143-1.963 0.81296-3.8685 1.5461-5.6152 2.1348-0.87331 0.2943-1.707 0.55229-2.4882 0.76634-0.7812 0.21408-1.5098 0.3841-2.1735 0.50178-0.66368 0.11769-1.2621 0.18294-1.7828 0.18812-0.52078 0.005-0.96367-0.0497-1.3162-0.17311-0.35253-0.12346-0.67495-0.30356-0.96943-0.53279-0.29451-0.22924-0.56129-0.50748-0.80254-0.82736-0.24127-0.31985-0.45677-0.68154-0.64958-1.0769-0.19282-0.39539-0.36295-0.82476-0.51212-1.2805-0.14917-0.45577-0.27774-0.93766-0.38809-1.4387-0.11033-0.50104-0.20222-1.0212-0.27853-1.5524-0.15261-1.0623-0.24204-2.1693-0.28731-3.2613-0.0453-1.092-0.0464-2.1687-0.0228-3.1693 0.0214-0.91118 0.0665-1.7312 0.11473-2.4707a18.012 18.382 0 0 0 -7.5923 14.966 18.012 18.382 0 0 0 18.012 18.382 18.012 18.382 0 0 0 18.012 -18.382 18.012 18.382 0 0 0 -1.4655 -7.2109z" style="paint-order:markers fill stroke;fill:#554742"/>
  <path id="path1280" d="m812.02-981.98a18.012 18.382 0 0 0 -10.42 3.4158c-0.0483 0.73949-0.0932 1.5595-0.11473 2.4707-0.0235 1.0006-0.0225 2.0773 0.0228 3.1693s0.1347 2.199 0.28731 3.2613c0.0763 0.53115 0.1682 1.0513 0.27853 1.5524 0.11035 0.50101 0.23892 0.9829 0.38809 1.4387 0.14917 0.45577 0.3193 0.88514 0.51212 1.2805 0.19281 0.39539 0.40831 0.75708 0.64958 1.0769 0.24125 0.31988 0.50803 0.59812 0.80254 0.82736 0.29448 0.22923 0.6169 0.40933 0.96943 0.53279 0.35253 0.12342 0.79542 0.17827 1.3162 0.17311 0.52078-0.005 1.1192-0.0704 1.7828-0.18812 0.66368-0.11768 1.3923-0.2877 2.1735-0.50178 0.78119-0.21405 1.6149-0.47204 2.4882-0.76634 1.7467-0.58864 3.6522-1.3218 5.6152-2.1348 1.963-0.81296 3.9835-1.706 5.9598-2.6143 1.331-0.61169 2.5754-1.2166 3.8354-1.8226a18.012 18.382 0 0 0 -16.547 -11.171z" style="paint-order:markers fill stroke;fill:#6d605a"/>
  <path id="path1507" d="m867.74-991.47a41.334 42.176 0 0 0 -37.031 -23.622 41.334 42.176 0 0 0 -9.0594 1.0728c-0.41817 0.4126-0.88516 0.8894-1.3963 1.4599-0.55089 0.6149-1.1389 1.3165-1.7275 2.0949-0.58862 0.7785-1.1778 1.6337-1.7312 2.5549-0.55335 0.9212-1.071 1.9085-1.5162 2.9518-0.22259 0.5216-0.42691 1.0573-0.60875 1.6056-0.18185 0.5482-0.34137 1.1092-0.47337 1.6815-0.13197 0.5723-0.23651 1.156-0.30954 1.7498-0.0196 0.15899-0.0172 0.3243-0.032 0.48472a35.588 36.313 0 0 1 4.3972 -0.28784 35.588 36.313 0 0 1 31.169 18.929c0.14272-0.0783 0.27826-0.1441 0.42116-0.22273 3.0517-1.6796 6.1444-3.4419 9.2392-5.2545 2.8964-1.6964 5.7908-3.4415 8.6594-5.1976z" style="paint-order:markers fill stroke;fill:#6d605a"/>
  <path id="path1280-3-1" d="m867.74-991.47c-2.8686 1.7561-5.763 3.5012-8.6594 5.1976-3.0949 1.8126-6.1875 3.5749-9.2392 5.2545-0.1429 0.0786-0.27844 0.14444-0.42116 0.22273a35.588 36.313 0 0 1 2.8515 6.8368c0.21175-0.0132 0.15201 0.005 0.41085-0.019 0.61304-0.0568 1.3529-0.14814 2.1921-0.29403 0.83926-0.1459 1.7781-0.34674 2.79-0.62217 1.0119-0.27551 2.0962-0.62532 3.2272-1.0708 1.131-0.44545 2.3082-0.98639 3.5047-1.6423 0.59822-0.32792 1.2015-0.68464 1.8061-1.0728 0.60457-0.38814 1.2106-0.80751 1.8149-1.2609 0.60421-0.45339 1.2064-0.94078 1.8035-1.4645 0.37327-0.32737 0.73954-0.6957 1.1079-1.0521a41.334 42.176 0 0 0 -3.189 -9.0129z" style="paint-order:markers fill stroke;fill:#554742"/>
 </g>
</svg>
