<svg id="svg684" xmlns="http://www.w3.org/2000/svg" version="1.1" viewBox="0 0 800 800">
 <g id="layer1">
  <circle id="use5431" cx="285.3" cy="46.9" r="4.1"></circle>
  <circle id="use5433" r="4.1" cx="244.4" cy="64.0"></circle>
  <circle id="use5435" cx="286.8" cy="104.9" r="4.1"></circle>
  <circle id="use5437" r="4.1" cx="380.9" cy="56.2"></circle>
  <circle id="use5439" cx="373.0" cy="32.1" r="4.1"></circle>
  <circle id="use5441" r="4.1" cx="421.1" cy="17.2"></circle>
  <circle id="use5443" cx="438.5" cy="34.5" r="4.1"></circle>
  <circle id="use5445" r="4.1" cx="472.7" cy="38.5"></circle>
  <circle id="use5447" cx="500.5" cy="45.4" r="4.1"></circle>
  <circle id="use5449" r="4.1" cx="539.5" cy="39.6"></circle>
  <circle id="use5451" cx="636.1" cy="86.1" r="4.1"></circle>
  <circle id="use5453" r="4.1" cx="549.7" cy="119.5"></circle>
  <circle id="use5455" cx="487.6" cy="138.7" r="4.1"></circle>
  <circle id="use5457" r="4.1" cx="469.8" cy="134.5"></circle>
  <circle id="use5459" cx="549.6" cy="155.5" r="4.1"></circle>
  <circle id="use5461" r="4.1" cx="531.2" cy="178.1"></circle>
  <circle id="use5463" cx="597.6" cy="207.1" r="4.1"></circle>
  <circle id="use5465" r="4.1" cx="406.4" cy="180.4"></circle>
  <circle id="use5467" cx="508.8" cy="228.6" r="4.1"></circle>
  <circle id="use5469" r="4.1" cx="456.6" cy="252.4"></circle>
  <circle id="use5471" cx="496.4" cy="276.9" r="4.1"></circle>
  <circle id="use5473" r="4.1" cx="115.4" cy="138.4"></circle>
  <circle id="use5475" cx="182.8" cy="215.3" r="4.1"></circle>
  <circle id="use5477" r="4.1" cx="145.5" cy="232.0"></circle>
  <circle id="use5479" cx="197.2" cy="245.1" r="4.1"></circle>
  <circle id="use5481" r="4.1" cx="194.3" cy="262.9"></circle>
  <circle id="use5483" cx="180.4" cy="266.9" r="4.1"></circle>
  <circle id="use5485" r="4.1" cx="152.2" cy="301.2"></circle>
  <circle id="use5487" cx="120.2" cy="291.0" r="4.1"></circle>
  <circle id="use5489" r="4.1" cx="85.3" cy="307.3"></circle>
  <circle id="use5491" cx="71.9" cy="260.4" r="4.1"></circle>
  <circle id="use5493" r="4.1" cx="69.4" cy="250.5"></circle>
  <circle id="use5495" cx="77.8" cy="218.6" r="4.1"></circle>
  <circle id="use5497" r="4.1" cx="243.6" cy="298.9"></circle>
  <circle id="use5499" cx="211.0" cy="319.9" r="4.1"></circle>
  <circle id="use5501" r="4.1" cx="261.5" cy="302.6"></circle>
  <circle id="use5503" cx="281.9" cy="297.0" r="4.1"></circle>
  <circle id="use5505" r="4.1" cx="344.1" cy="281.1"></circle>
  <circle id="use5507" cx="408.8" cy="232.4" r="4.1"></circle>
  <circle id="use5509" r="4.1" cx="479.9" cy="283.4"></circle>
  <circle id="use5511" cx="460.8" cy="310.5" r="4.1"></circle>
  <circle id="use5513" r="4.1" cx="392.3" cy="313.3"></circle>
  <circle id="use5515" cx="366.6" cy="302.9" r="4.1"></circle>
  <circle id="use5517" r="4.1" cx="350.9" cy="300.1"></circle>
  <circle id="use5519" cx="366.6" cy="316.2" r="4.1"></circle>
  <circle id="use5521" r="4.1" cx="371.6" cy="324.2"></circle>
  <circle id="use5523" cx="577.8" cy="313.3" r="4.1"></circle>
  <circle id="use5525" r="4.1" cx="596.6" cy="227.4"></circle>
  <circle id="use5527" cx="675.1" cy="227.1" r="4.1"></circle>
  <circle id="use5529" r="4.1" cx="705.3" cy="204.3"></circle>
  <circle id="use5531" cx="758.6" cy="218.0" r="4.1"></circle>
  <circle id="use5533" r="4.1" cx="730.5" cy="261.7"></circle>
  <circle id="use5535" cx="703.9" cy="285.7" r="4.1"></circle>
  <circle id="use5537" r="4.1" cx="636.5" cy="292.4"></circle>
  <circle id="use5539" cx="774.2" cy="299.8" r="4.1"></circle>
  <circle id="use5541" r="4.1" cx="770.8" cy="332.1"></circle>
  <circle id="use5543" cx="648.9" cy="320.9" r="4.1"></circle>
  <circle id="use5545" r="4.1" cx="645.5" cy="330.7"></circle>
  <circle id="use5547" cx="541.5" cy="340.2" r="4.1"></circle>
  <circle id="use5549" r="4.1" cx="566.4" cy="351.4"></circle>
  <circle id="use5551" cx="562.2" cy="387.7" r="4.1"></circle>
  <circle id="use5553" r="4.1" cx="637.1" cy="370.6"></circle>
  <circle id="use5555" cx="634.3" cy="424.7" r="4.1"></circle>
  <circle id="use5557" r="4.1" cx="665.3" cy="455.6"></circle>
  <circle id="use5559" cx="663.8" cy="467.9" r="4.1"></circle>
  <circle id="use5561" r="4.1" cx="463.6" cy="438.4"></circle>
  <circle id="use5563" cx="445.0" cy="450.5" r="4.1"></circle>
  <circle id="use5565" r="4.1" cx="459.3" cy="463.6"></circle>
  <circle id="use5567" cx="547.1" cy="414.3" r="4.1"></circle>
  <circle id="use5569" r="4.1" cx="380.1" cy="446.3"></circle>
  <circle id="use5571" cx="353.7" cy="435.1" r="4.1"></circle>
  <circle id="use5573" r="4.1" cx="329.2" cy="410.1"></circle>
  <circle id="use5575" cx="293.9" cy="365.4" r="4.1"></circle>
  <circle id="use5577" r="4.1" cx="245.7" cy="344.1"></circle>
  <circle id="use5579" cx="241.5" cy="354.8" r="4.1"></circle>
  <circle id="use5581" r="4.1" cx="277.6" cy="394.8"></circle>
  <circle id="use5583" cx="282.6" cy="424.3" r="4.1"></circle>
  <circle id="use5585" r="4.1" cx="187.8" cy="353.5"></circle>
  <circle id="use5587" cx="111.2" cy="384.8" r="4.1"></circle>
  <circle id="use5589" r="4.1" cx="115.3" cy="395.1"></circle>
  <circle id="use5591" cx="41.4" cy="385.6" r="4.1"></circle>
  <circle id="use5593" r="4.1" cx="43.5" cy="358.1"></circle>
  <circle id="use5595" cx="21.8" cy="346.2" r="4.1"></circle>
  <circle id="use5597" r="4.1" cx="17.6" cy="412.3"></circle>
  <circle id="use5599" cx="8.5" cy="412.2" r="4.1"></circle>
  <circle id="use5601" r="4.1" cx="18.7" cy="432.4"></circle>
  <circle id="use5603" cx="72.9" cy="416.3" r="4.1"></circle>
  <circle id="use5605" r="4.1" cx="28.5" cy="461.6"></circle>
  <circle id="use5607" cx="131.5" cy="431.8" r="4.1"></circle>
  <circle id="use5609" r="4.1" cx="176.3" cy="507.5"></circle>
  <circle id="use5611" cx="195.7" cy="521.2" r="4.1"></circle>
  <circle id="use5613" r="4.1" cx="259.8" cy="445.8"></circle>
  <circle id="use5615" cx="269.4" cy="460.1" r="4.1"></circle>
  <circle id="use5617" r="4.1" cx="373.1" cy="507.6"></circle>
  <circle id="use5619" cx="447.4" cy="507.4" r="4.1"></circle>
  <circle id="use5621" r="4.1" cx="475.6" cy="525.5"></circle>
  <circle id="use5623" cx="539.2" cy="516.0" r="4.1"></circle>
  <circle id="use5625" r="4.1" cx="656.0" cy="526.0"></circle>
  <circle id="use5627" cx="700.4" cy="478.5" r="4.1"></circle>
  <circle id="use5629" r="4.1" cx="733.1" cy="505.1"></circle>
  <circle id="use5631" cx="777.3" cy="456.9" r="4.1"></circle>
  <circle id="use5633" r="4.1" cx="696.2" cy="413.3"></circle>
  <circle id="use5635" cx="791.5" cy="379.9" r="4.1"></circle>
  <circle id="use5637" r="4.1" cx="742.5" cy="595.4"></circle>
  <circle id="use5639" cx="655.9" cy="599.7" r="4.1"></circle>
  <circle id="use5641" r="4.1" cx="565.9" cy="581.9"></circle>
  <circle id="use5643" cx="550.7" cy="634.6" r="4.1"></circle>
  <circle id="use5645" r="4.1" cx="522.2" cy="567.1"></circle>
  <circle id="use5647" cx="465.8" cy="644.2" r="4.1"></circle>
  <circle id="use5649" r="4.1" cx="329.1" cy="652.5"></circle>
  <circle id="use5651" cx="300.3" cy="613.9" r="4.1"></circle>
  <circle id="use5653" r="4.1" cx="254.4" cy="631.8"></circle>
  <circle id="use5655" cx="217.0" cy="559.5" r="4.1"></circle>
  <circle id="use5657" r="4.1" cx="537.6" cy="734.6"></circle>
  <circle id="use5659" cx="461.6" cy="707.3" r="4.1"></circle>
  <circle id="use5661" r="4.1" cx="354.2" cy="762.5"></circle>
  <circle id="use5663" cx="282.7" cy="763.5" r="4.1"></circle>
  <circle id="use5665" r="4.1" cx="310.8" cy="780.5"></circle>
  <circle id="use5667" cx="474.5" cy="782.9" r="4.1"></circle>
  <circle id="use5669" r="4.1" cx="513.2" cy="782.8"></circle>
  <circle id="use5671" cx="93.9" cy="562.5" r="4.1"></circle>
 </g>
 <g id="layer3">
  <circle id="use5220" cx="243.4" cy="55.1" r="2.3"></circle>
  <circle id="use5222" r="2.3" cx="307.9" cy="45.1"></circle>
  <circle id="use5224" cx="323.8" cy="61.9" r="2.3"></circle>
  <circle id="use5226" r="2.3" cx="324.7" cy="83.4"></circle>
  <circle id="use5228" cx="404.0" cy="86.1" r="2.3"></circle>
  <circle id="use5230" r="2.3" cx="433.0" cy="91.8"></circle>
  <circle id="use5232" cx="492.8" cy="92.7" r="2.3"></circle>
  <circle id="use5234" r="2.3" cx="556.7" cy="69.9"></circle>
  <circle id="use5236" cx="576.0" cy="51.9" r="2.3"></circle>
  <circle id="use5238" r="2.3" cx="561.9" cy="142.1"></circle>
  <circle id="use5240" cx="476.3" cy="160.3" r="2.3"></circle>
  <circle id="use5242" r="2.3" cx="463.2" cy="154.1"></circle>
  <circle id="use5244" cx="497.5" cy="186.1" r="2.3"></circle>
  <circle id="use5246" r="2.3" cx="447.8" cy="171.1"></circle>
  <circle id="use5248" cx="482.1" cy="212.3" r="2.3"></circle>
  <circle id="use5250" r="2.3" cx="493.6" cy="197.7"></circle>
  <circle id="use5252" cx="583.2" cy="203.0" r="2.3"></circle>
  <circle id="use5254" r="2.3" cx="571.4" cy="213.6"></circle>
  <circle id="use5256" cx="488.8" cy="230.9" r="2.3"></circle>
  <circle id="use5258" r="2.3" cx="431.9" cy="282.3"></circle>
  <circle id="use5260" cx="643.4" cy="137.4" r="2.3"></circle>
  <circle id="use5262" r="2.3" cx="634.7" cy="150.3"></circle>
  <circle id="use5264" cx="629.7" cy="159.7" r="2.3"></circle>
  <circle id="use5266" r="2.3" cx="650.4" cy="176.8"></circle>
  <circle id="use5268" cx="668.1" cy="191.7" r="2.3"></circle>
  <circle id="use5272" r="2.3" cx="705.5" cy="227.2"></circle>
  <circle id="use5274" cx="625.1" cy="227.2" r="2.3"></circle>
  <circle id="use5276" r="2.3" cx="660.7" cy="264.6"></circle>
  <circle id="use5278" cx="693.6" cy="290.9" r="2.3"></circle>
  <circle id="use5280" r="2.3" cx="689.0" cy="301.9"></circle>
  <circle id="use5282" cx="636.2" cy="301.8" r="2.3"></circle>
  <circle id="use5284" r="2.3" cx="633.8" cy="310.8"></circle>
  <circle id="use5286" cx="598.9" cy="358.7" r="2.3"></circle>
  <circle id="use5288" r="2.3" cx="648.5" cy="384.0"></circle>
  <circle id="use5290" cx="628.4" cy="403.0" r="2.3"></circle>
  <circle id="use5292" r="2.3" cx="666.3" cy="388.1"></circle>
  <circle id="use5294" cx="698.5" cy="402.4" r="2.3"></circle>
  <circle id="use5296" r="2.3" cx="725.5" cy="450.4"></circle>
  <circle id="use5298" cx="601.8" cy="460.7" r="2.3"></circle>
  <circle id="use5300" r="2.3" cx="605.3" cy="467.4"></circle>
  <circle id="use5302" cx="597.7" cy="471.2" r="2.3"></circle>
  <circle id="use5304" r="2.3" cx="593.9" cy="464.4"></circle>
  <circle id="use5306" cx="616.2" cy="480.9" r="2.3"></circle>
  <circle id="use5308" r="2.3" cx="675.1" cy="505.8"></circle>
  <circle id="use5310" cx="695.2" cy="507.4" r="2.3"></circle>
  <circle id="use5312" r="2.3" cx="753.0" cy="488.8"></circle>
  <circle id="use5314" cx="771.9" cy="498.5" r="2.3"></circle>
  <circle id="use5316" r="2.3" cx="778.5" cy="412.6"></circle>
  <circle id="use5318" cx="461.0" cy="338.1" r="2.3"></circle>
  <circle id="use5320" r="2.3" cx="440.4" cy="387.5"></circle>
  <circle id="use5322" cx="455.6" cy="376.1" r="2.3"></circle>
  <circle id="use5324" r="2.3" cx="468.4" cy="363.3"></circle>
  <circle id="use5326" cx="460.4" cy="360.0" r="2.3"></circle>
  <circle id="use5328" r="2.3" cx="464.1" cy="351.6"></circle>
  <circle id="use5330" cx="458.0" cy="348.1" r="2.3"></circle>
  <circle id="use5332" cx="482.2" cy="401.6" r="2.3"></circle>
  <circle id="use5334" r="2.3" cx="491.0" cy="419.8"></circle>
  <circle id="use5336" cx="524.5" cy="444.8" r="2.3"></circle>
  <circle id="use5338" r="2.3" cx="465.4" cy="469.5"></circle>
  <circle id="use5340" cx="410.6" cy="370.6" r="2.3"></circle>
  <circle id="use5342" r="2.3" cx="313.9" cy="456.9"></circle>
  <circle id="use5344" cx="311.5" cy="443.9" r="2.3"></circle>
  <circle id="use5346" r="2.3" cx="320.4" cy="433.3"></circle>
  <circle id="use5348" cx="357.4" cy="423.5" r="2.3"></circle>
  <circle id="use5350" r="2.3" cx="342.2" cy="399.0"></circle>
  <circle id="use5352" cx="342.2" cy="358.8" r="2.3"></circle>
  <circle id="use5354" cx="268.0" cy="470.9" r="2.3"></circle>
  <circle id="use5356" r="2.3" cx="287.7" cy="492.4"></circle>
  <circle id="use5358" cx="218.6" cy="503.7" r="2.3"></circle>
  <circle id="use5360" r="2.3" cx="203.6" cy="487.8"></circle>
  <circle id="use5362" cx="184.9" cy="486.9" r="2.3"></circle>
  <circle id="use5364" r="2.3" cx="191.4" cy="430.8"></circle>
  <circle id="use5366" cx="196.0" cy="358.4" r="2.3"></circle>
  <circle id="use5368" r="2.3" cx="196.8" cy="335.0"></circle>
  <circle id="use5370" cx="251.0" cy="363.0" r="2.3"></circle>
  <circle id="use5372" r="2.3" cx="268.1" cy="397.3"></circle>
  <circle id="use5374" cx="282.5" cy="322.6" r="2.3"></circle>
  <circle id="use5376" r="2.3" cx="226.7" cy="316.3"></circle>
  <circle id="use5378" cx="269.0" cy="311.6" r="2.3"></circle>
  <circle id="use5380" r="2.3" cx="231.9" cy="287.8"></circle>
  <circle id="use5382" cx="230.7" cy="279.9" r="2.3"></circle>
  <circle id="use5384" r="2.3" cx="246.7" cy="277.4"></circle>
  <circle id="use5386" cx="292.2" cy="264.1" r="2.3"></circle>
  <circle id="use5388" r="2.3" cx="306.6" cy="239.1"></circle>
  <circle id="use5390" cx="327.0" cy="222.8" r="2.3"></circle>
  <circle id="use5392" r="2.3" cx="294.5" cy="212.8"></circle>
  <circle id="use5394" cx="266.8" cy="220.7" r="2.3"></circle>
  <circle id="use5396" r="2.3" cx="237.8" cy="239.4"></circle>
  <circle id="use5398" cx="228.4" cy="198.1" r="2.3"></circle>
  <circle id="use5400" r="2.3" cx="250.9" cy="179.9"></circle>
  <circle id="use5402" cx="284.9" cy="178.7" r="2.3"></circle>
  <circle id="use5404" r="2.3" cx="302.9" cy="159.5"></circle>
  <circle id="use5406" cx="250.9" cy="156.1" r="2.3"></circle>
  <circle id="use5408" r="2.3" cx="207.5" cy="136.6"></circle>
  <circle id="use5410" cx="218.5" cy="122.8" r="2.3"></circle>
  <circle id="use5412" r="2.3" cx="233.3" cy="104.6"></circle>
  <circle id="use5414" cx="196.1" cy="84.4" r="2.3"></circle>
  <circle id="use5416" r="2.3" cx="113.7" cy="148.5"></circle>
  <circle id="use5418" cx="103.2" cy="171.3" r="2.3"></circle>
  <circle id="use5420" r="2.3" cx="122.0" cy="186.1"></circle>
  <circle id="use5422" cx="58.0" cy="251.3" r="2.3"></circle>
  <circle id="use5424" r="2.3" cx="80.8" cy="271.9"></circle>
  <circle id="use5426" cx="66.3" cy="282.6" r="2.3"></circle>
  <circle id="use5428" r="2.3" cx="72.7" cy="292.3"></circle>
  <circle id="use5430" cx="38.1" cy="296.2" r="2.3"></circle>
  <circle id="use5432" r="2.3" cx="43.5" cy="299.2"></circle>
  <circle id="use5434" cx="25.8" cy="326.9" r="2.3"></circle>
  <circle id="use5436" r="2.3" cx="86.2" cy="380.6"></circle>
  <circle id="use5438" cx="124.8" cy="378.3" r="2.3"></circle>
  <circle id="use5440" r="2.3" cx="124.2" cy="390.7"></circle>
  <circle id="use5442" cx="122.4" cy="403.8" r="2.3"></circle>
  <circle id="use5444" r="2.3" cx="78.5" cy="406.5"></circle>
  <circle id="use5446" cx="67.9" cy="423.5" r="2.3"></circle>
  <circle id="use5448" r="2.3" cx="60.7" cy="434.5"></circle>
  <circle id="use5450" cx="50.5" cy="434.5" r="2.3"></circle>
  <circle id="use5452" r="2.3" cx="14.5" cy="462.5"></circle>
  <circle id="use5454" cx="42.0" cy="478.4" r="2.3"></circle>
  <circle id="use5456" r="2.3" cx="54.1" cy="472.8"></circle>
  <circle id="use5458" cx="63.1" cy="480.6" r="2.3"></circle>
  <circle id="use5460" r="2.3" cx="114.5" cy="460.4"></circle>
  <circle id="use5462" cx="160.6" cy="472.8" r="2.3"></circle>
  <circle id="use5464" r="2.3" cx="158.8" cy="465.4"></circle>
  <circle id="use5466" cx="160.2" cy="449.2" r="2.3"></circle>
  <circle id="use5468" r="2.3" cx="110.7" cy="437.1"></circle>
  <circle id="use5470" r="2.3" cx="206.6" cy="512.8"></circle>
  <circle id="use5472" cx="197.5" cy="536.3" r="2.3"></circle>
  <circle id="use5474" r="2.3" cx="169.9" cy="572.8"></circle>
  <circle id="use5476" cx="126.0" cy="555.7" r="2.3"></circle>
  <circle id="use5478" r="2.3" cx="109.3" cy="561.5"></circle>
  <circle id="use5480" cx="114.0" cy="551.0" r="2.3"></circle>
  <circle id="use5482" r="2.3" cx="84.8" cy="519.0"></circle>
  <circle id="use5484" cx="243.0" cy="539.3" r="2.3"></circle>
  <circle id="use5486" r="2.3" cx="267.2" cy="516.8"></circle>
  <circle id="use5488" cx="280.8" cy="533.9" r="2.3"></circle>
  <circle id="use5490" r="2.3" cx="313.5" cy="532.6"></circle>
  <circle id="use5492" cx="268.1" cy="533.9" r="2.3"></circle>
  <circle id="use5494" cx="330.6" cy="536.1" r="2.3"></circle>
  <circle id="use5496" r="2.3" cx="386.1" cy="546.5"></circle>
  <circle id="use5498" cx="409.0" cy="551.1" r="2.3"></circle>
  <circle id="use5500" r="2.3" cx="423.6" cy="548.8"></circle>
  <circle id="use5502" cx="436.6" cy="561.9" r="2.3"></circle>
  <circle id="use5504" r="2.3" cx="450.8" cy="558.3"></circle>
  <circle id="use5506" cx="424.3" cy="571.2" r="2.3"></circle>
  <circle id="use5508" r="2.3" cx="407.4" cy="568.9"></circle>
  <circle id="use5510" cx="441.1" cy="603.1" r="2.3"></circle>
  <circle id="use5512" r="2.3" cx="436.3" cy="617.7"></circle>
  <circle id="use5514" cx="487.0" cy="570.6" r="2.3"></circle>
  <circle id="use5516" r="2.3" cx="495.8" cy="570.1"></circle>
  <circle id="use5518" cx="503.1" cy="575.4" r="2.3"></circle>
  <circle id="use5520" r="2.3" cx="497.7" cy="562.5"></circle>
  <circle id="use5522" cx="514.1" cy="538.6" r="2.3"></circle>
  <circle id="use5524" r="2.3" cx="621.4" cy="584.7"></circle>
  <circle id="use5526" cx="657.4" cy="586.3" r="2.3"></circle>
  <circle id="use5528" r="2.3" cx="728.3" cy="584.7"></circle>
  <circle id="use5530" cx="601.8" cy="627.7" r="2.3"></circle>
  <circle id="use5532" r="2.3" cx="581.6" cy="630.5"></circle>
  <circle id="use5534" cx="560.5" cy="634.7" r="2.3"></circle>
  <circle id="use5536" r="2.3" cx="526.4" cy="628.6"></circle>
  <circle id="use5538" cx="519.9" cy="619.3" r="2.3"></circle>
  <circle id="use5540" r="2.3" cx="511.1" cy="603.8"></circle>
  <circle id="use5542" cx="473.1" cy="633.7" r="2.3"></circle>
  <circle id="use5544" r="2.3" cx="447.7" cy="669.7"></circle>
  <circle id="use5546" cx="426.2" cy="668.8" r="2.3"></circle>
  <circle id="use5548" r="2.3" cx="577.0" cy="658.7"></circle>
  <circle id="use5550" cx="360.5" cy="613.8" r="2.3"></circle>
  <circle id="use5552" r="2.3" cx="406.4" cy="639.9"></circle>
  <circle id="use5554" cx="402.7" cy="658.4" r="2.3"></circle>
  <circle id="use5556" r="2.3" cx="397.9" cy="700.6"></circle>
  <circle id="use5558" cx="435.2" cy="720.3" r="2.3"></circle>
  <circle id="use5560" r="2.3" cx="463.5" cy="717.9"></circle>
  <circle id="use5562" cx="470.8" cy="720.3" r="2.3"></circle>
  <circle id="use5564" r="2.3" cx="494.2" cy="715.5"></circle>
  <circle id="use5566" cx="521.7" cy="716.3" r="2.3"></circle>
  <circle id="use5568" r="2.3" cx="521.1" cy="747.3"></circle>
  <circle id="use5570" cx="551.6" cy="713.3" r="2.3"></circle>
  <circle id="use5572" r="2.3" cx="584.1" cy="704.0"></circle>
  <circle id="use5574" cx="598.5" cy="701.6" r="2.3"></circle>
  <circle id="use5576" r="2.3" cx="606.4" cy="700.0"></circle>
  <circle id="use5578" cx="616.8" cy="704.0" r="2.3"></circle>
  <circle id="use5580" r="2.3" cx="618.4" cy="671.1"></circle>
  <circle id="use5582" cx="626.8" cy="661.9" r="2.3"></circle>
  <circle id="use5584" r="2.3" cx="574.8" cy="744.8"></circle>
  <circle id="use5586" cx="493.1" cy="766.9" r="2.3"></circle>
  <circle id="use5588" r="2.3" cx="449.2" cy="769.8"></circle>
  <circle id="use5590" cx="443.6" cy="776.3" r="2.3"></circle>
  <circle id="use5592" r="2.3" cx="418.3" cy="743.6"></circle>
  <circle id="use5594" cx="375.4" cy="778.2" r="2.3"></circle>
  <circle id="use5596" r="2.3" cx="311.9" cy="701.6"></circle>
  <circle id="use5598" cx="282.0" cy="600.8" r="2.3"></circle>
  <circle id="use5600" r="2.3" cx="246.6" cy="603.6"></circle>
  <circle id="use5602" cx="235.4" cy="651.1" r="2.3"></circle>
  <circle id="use5604" r="2.3" cx="181.7" cy="601.9"></circle>
  <circle id="use5606" cx="178.9" cy="624.6" r="2.3"></circle>
  <circle id="use5608" r="2.3" cx="156.8" cy="643.2"></circle>
  <circle id="use5610" cx="136.6" cy="625.2" r="2.3"></circle>
  <circle id="use5612" r="2.3" cx="118.4" cy="619.1"></circle>
  <circle id="use5614" cx="103.1" cy="622.0" r="2.3"></circle>
  <circle id="use5616" r="2.3" cx="86.2" cy="619.6"></circle>
  <circle id="use5618" cx="750.7" cy="596.1" r="2.3"></circle>
  <circle id="use5620" r="2.3" cx="758.8" cy="587.1"></circle>
  <circle id="use5622" cx="793.2" cy="394.6" r="2.3"></circle>
  <circle id="use5624" r="2.3" cx="424.9" cy="178.6"></circle>
 </g>
 <g id="layer4">
  <circle id="use5423" cx="532.1" cy="21.4" r="5.0"></circle>
  <circle id="use5425" r="5.0" cx="531.2" cy="64.2"></circle>
  <circle id="use5427" cx="356.0" cy="97.0" r="5.0"></circle>
  <circle id="use5429" r="5.0" cx="82.8" cy="261.9"></circle>
  <circle id="use5628" cx="644.0" cy="214.3" r="5.0"></circle>
  <circle id="use5630" r="5.0" cx="680.6" cy="193.8"></circle>
  <circle id="use5632" cx="500.6" cy="343.1" r="5.0"></circle>
  <circle id="use5634" r="5.0" cx="360.1" cy="388.9"></circle>
  <circle id="use5636" cx="267.7" cy="350.6" r="5.0"></circle>
  <circle id="use5638" r="5.0" cx="171.5" cy="389.7"></circle>
  <circle id="use5640" cx="300.4" cy="424.4" r="5.0"></circle>
  <circle id="use5642" r="5.0" cx="560.8" cy="561.1"></circle>
  <circle id="use5644" cx="554.0" cy="501.1" r="5.0"></circle>
  <circle id="use5646" r="5.0" cx="625.7" cy="412.0"></circle>
  <circle id="use5648" cx="559.1" cy="666.1" r="5.0"></circle>
 </g>
 <g id="layer5">
  <circle id="use5658" cx="248.8" cy="508.0" r="5.6"></circle>
  <circle id="use5660" r="5.6" cx="464.3" cy="608.8"></circle>
  <circle id="use5662" cx="677.8" cy="622.4" r="5.6"></circle>
 </g>
</svg>