<svg xmlns="http://www.w3.org/2000/svg" version="1.1" viewBox="0 0 800 800"><path stroke-width="3.7795" fill="#00496d" d="m473.36 786.81c-1.8129-0.51855-2.9903-2.1286-2.9886-4.0872 0.004-4.7853 6.8909-5.5328 8.1245-0.88177 0.81418 3.0701-2.0588 5.8496-5.1358 4.969zm38.458-0.0907c-2.8641-1.0216-3.6996-4.6518-1.5631-6.7914 0.89813-0.89953 1.6878-1.2284 2.9484-1.2284 1.3774 0 2.6567 0.62778 3.3984 1.6679 0.87931 1.2329 0.91967 3.6404 0.0801 4.7671-1.1691 1.5681-3.1242 2.2054-4.8637 1.5848zm-202.34-2.2367c-1.6859-0.63345-2.7631-2.1993-2.7631-4.0165 0-3.2232 3.134-5.1054 6.0246-3.6189 2.0401 1.0496 2.7823 3.5528 1.6785 5.6614-0.80391 1.536-3.3735 2.5625-4.94 1.974zm65.054-4.1443c-2.2982-0.95055-1.6258-4.4655 0.85421-4.4655 1.9663 0 3.0037 2.2919 1.6987 3.7523-0.6991 0.78274-1.7054 1.0636-2.5529 0.71319zm67.627-2.3184c-1.693-1.4249-0.76308-3.9953 1.4454-3.9953 1.9999 0 3.014 2.214 1.6986 3.7088-0.9363 1.0639-2.0946 1.1694-3.144 0.28725zm5.8907-6.2555c-1.6517-0.89726-1.4575-3.5509 0.30501-4.1654 2.7756-0.96756 4.4514 3.0357 1.7802 4.2527-0.89816 0.40933-1.1936 0.39685-2.085-0.0869zm43.376-3.2447c-0.93505-0.93505-0.8863-2.1449 0.12737-3.1586 0.47891-0.47887 1.0809-0.79446 1.5157-0.79446 1.0256 0 2.3102 1.3553 2.3102 2.4374 0 1.1924-1.048 2.1827-2.3102 2.1827-0.67382 0-1.1825-0.20788-1.6431-0.66709zm-211.06-1.5802c-3.4148-2.2813-1.8262-7.5368 2.2781-7.5368 3.4414 0 5.2717 3.4292 3.4301 6.426-1.0609 1.7261-3.9462 2.2878-5.7081 1.1108zm72.322-0.50305c-1.1036-0.43881-2.1623-1.6312-2.4731-2.7855-1.043-3.8736 3.5166-6.8946 6.5516-4.3408 1.6909 1.4226 2.0742 3.318 1.0694 5.2876-0.8773 1.7197-3.2845 2.5795-5.1479 1.8387zm166.73-17.485c-1.5902-1.59 0.004-4.3892 2.1883-3.8411 2.6498 0.6652 2.1851 4.5082-0.54524 4.5082-0.67377 0-1.1825-0.20787-1.643-0.66708zm53.814-2.3996c-1.5359-1.3213-0.52687-3.9995 1.5068-3.9995 1.2191 0 2.283 1.0764 2.283 2.31 0 1.9801-2.2736 2.9938-3.7898 1.6894zm-155.81-0.9c-2.0529-0.86325-1.7178-3.8419 0.48658-4.326 2.1015-0.46148 3.5512 2.0062 2.193 3.7327-0.65971 0.83868-1.6004 1.0469-2.6796 0.59339zm118.24-7.4736c-2.8403-1.443-2.9641-5.1394-0.24-7.158 1.0586-0.78425 3.3824-0.78841 4.4278 0 1.388 1.0364 1.8518 1.917 1.8518 3.5165 0 3.2183-3.1463 5.1198-6.0398 3.6495zm-101.34-15.74c-2.2982-0.95055-1.6258-4.4651 0.85425-4.4651 1.9663 0 3.0037 2.2915 1.6986 3.7523-0.6991 0.78236-1.7054 1.0636-2.5529 0.71282zm35.604 0c-2.2982-0.95055-1.6258-4.4651 0.85421-4.4651 1.9663 0 3.0037 2.2915 1.6987 3.7523-0.69914 0.78236-1.7055 1.0636-2.5529 0.71282zm-8.0332-3.0104c-0.71584-0.71584-0.80613-0.96415-0.66682-1.8346 0.19843-1.2393 1.027-1.9578 2.2585-1.9578 2.3176 0 3.1902 3.1737 1.1611 4.2229-1.1496 0.59452-1.8351 0.48718-2.7528-0.43049zm58.76-1.1543c-2.1662-1.0957-1.3933-4.2686 1.0398-4.2686 2.4357 0 3.2112 3.5074 0.96438 4.3616-0.88429 0.33638-1.1831 0.32126-2.0042-0.0945zm-27.972-0.93922c-0.32013-0.26078-0.65446-0.92863-0.74309-1.4823-0.13947-0.87042-0.0491-1.1187 0.66682-1.8346 0.91771-0.91767 1.6032-1.0246 2.7528-0.43011 0.86184 0.44561 1.1066 0.90633 1.1066 2.0829 0 1.7567-2.3858 2.8059-3.7831 1.6641zm57.838-2.1063c-2.504-1.361-0.76037-5.111 1.939-4.17 1.889 0.65839 1.9561 3.4242 0.10167 4.199-1.095 0.45771-1.1467 0.45695-2.0408-0.0378zm-90.642-4.1764c-2.6207-1.22-3.2377-4.4897-1.2494-6.621 1.9108-2.0478 5.7008-1.4612 6.7477 1.0447 1.5118 3.6181-2.017 7.197-5.4984 5.5763zm123.56-4.8431c-1.645-0.624-2.1248-2.4703-0.98604-3.7943 1.3159-1.5296 3.9757-0.50306 3.9757 1.5345 0 1.4022-1.7545 2.7284-2.9896 2.2598zm32.342-0.1663c-1.4916-0.75477-1.703-3.0372-0.36284-3.9156 1.5827-1.0371 3.624-0.0529 3.624 1.7503 0 1.262-0.3772 1.8622-1.3937 2.2163-1.0585 0.3704-1.0354 0.3704-1.8676-0.0529zm-304.94-2.4325c-2.1099-1.1021-1.3065-4.2822 1.0818-4.2822 2.7836 0 3.1448 3.9821 0.40672 4.4848-0.44791 0.0831-1.1177 0-1.4885-0.2041zm286.16-0.45656c-0.84797-0.84775-0.98804-1.5957-0.4783-2.5527 1.1556-2.1698 4.3042-1.4113 4.3042 1.0371 0 2.1396-2.2933 3.0482-3.8259 1.5156zm-200.83-0.96983c-1.7317-1.8433 0.35717-4.7123 2.6357-3.6204 0.91941 0.44069 1.547 1.6562 1.3206 2.558-0.44379 1.7681-2.7192 2.3792-3.9563 1.0624zm209.09-0.13984c-0.76585-0.30992-1.1729-1.0866-1.1729-2.2428 0-1.1694 0.93339-2.1037 2.1016-2.1037 1.2248 0 1.6722 0.23811 2.1383 1.1399 1.0474 2.0254-0.91269 4.0747-3.0671 3.2066zm11.96-28.845c-0.7872-0.39798-1.2694-1.6286-1.0426-2.6612 0.55778-2.5395 4.4885-1.9979 4.4885 0.61871 0 0.51326-0.21393 1.1951-0.47562 1.5152-0.55563 0.67994-2.119 0.95735-2.9703 0.52724zm-170.49-1.5269c-2.4845-1.2476-0.94053-5.0782 1.6788-4.165 1.1031 0.38437 1.5602 1.0299 1.5708 2.2174 0.0151 1.7416-1.6602 2.7458-3.2496 1.9476zm-22.011-1.1456c-1.6082-1.6082-0.52623-4.0838 1.7848-4.0838 1.0207 0 2.0132 1.1388 2.0132 2.31 0 1.9589-2.4628 3.109-3.7981 1.7737zm132.22 0.15118c-2.6216-1.1701-3.6675-4.5653-2.1854-7.0942 1.6732-2.8551 5.439-3.3279 7.789-0.97777 3.1793 3.1793 0.99008 8.4832-3.4864 8.4465-0.71599 0-1.6687-0.17386-2.1171-0.37417zm68.366-7.1701c-0.91771-0.91767-1.0249-1.6033-0.43034-2.753 0.45253-0.87496 0.90422-1.1066 2.1592-1.1066 1.186 0 2.0635 0.94828 2.0635 2.2299 0 1.2673-0.70651 2.0961-1.9578 2.2964-0.87023 0.13984-1.1187 0.0491-1.8345-0.66671zm-49.848-3.0637c-1.5231-1.1981-0.53011-4.0573 1.4091-4.0573 1.0307 0 2.136 0.88668 2.3564 1.8901 0.46654 2.1241-2.0089 3.549-3.7656 2.1672zm-174.29-0.35149c-1.5508-1.3338-0.53137-3.9761 1.534-3.9761 1.2346 0 2.2286 1.0307 2.2286 2.3104 0 2.03-2.2046 3.0059-3.7626 1.6656zm-74.294-4.0252c-1.1556-0.77858-1.9015-2.177-1.902-3.5656-0.003-3.6469 4.4598-5.4724 7.0481-2.8842 1.7022 1.7023 1.6554 4.2365-0.10961 5.9475-0.81407 0.78917-1.1824 0.93997-2.5193 1.0337-1.307 0.0907-1.7229 0.003-2.517-0.5314zm-93.202-3.3846c-0.96907-1.2321-0.71773-2.8547 0.54327-3.5066 1.1497-0.59452 1.8351-0.48756 2.7528 0.43011 0.71584 0.71584 0.80617 0.96454 0.66686 1.8346-0.2041 1.2745-1.0288 1.9578-2.3624 1.9578-0.79688 0-1.1678-0.1663-1.6006-0.71584zm229.88-5.065c-3.4094-2.2775-1.8267-7.5364 2.2682-7.5364 0.79166 0 1.6771 0.19654 2.1529 0.47547 2.6676 1.57 2.572 5.9456-0.15799 7.2412-1.3445 0.63799-3.1525 0.56164-4.263-0.18141zm-308.33-2.76c-0.95641-0.95622-0.93237-2.6177 0.0491-3.3898 1.2433-0.97777 2.8594-0.65802 3.5881 0.70979 0.50974 0.95736 0.36964 1.705-0.4783 2.5527-1.0136 1.0137-2.2237 1.0624-3.1588 0.12851zm249.63-3.3887c-0.47894-0.47887-0.79446-1.0809-0.79446-1.5156 0-1.0258 1.3554-2.31 2.4375-2.31 1.1926 0 2.1829 1.0481 2.1829 2.31 0 2.1396-2.2933 3.0482-3.8259 1.5156zm143.52-3.3502c-2.4745-1.6891-2.4888-5.2808-0.0265-6.9252 1.2123-0.80958 3.3267-0.84057 4.5959-0.068 0.95671 0.58318 1.9427 2.3732 1.9427 3.5267 0 1.1531-0.986 2.9431-1.9427 3.5263-1.2668 0.77254-3.3888 0.74381-4.5683-0.0605zm11.24-1.2828c-2.2982-0.95056-1.6258-4.4655 0.85421-4.4655 1.9663 0 3.0037 2.2919 1.6987 3.7523-0.6991 0.78274-1.7054 1.0636-2.5529 0.7132zm-307.21-1.31c-1.5444-0.8519-2.0471-1.7552-2.0471-3.6782 0-1.996 0.5266-2.8879 2.1921-3.713 1.4191-0.70337 2.1678-0.69014 3.6554 0.0643 2.7924 1.4154 3.0531 5.167 0.49172 7.076-1.0484 0.78123-3.1121 0.90217-4.2921 0.24945zm219.17-0.13606c-1.5359-1.321-0.52687-3.9995 1.5068-3.9995 1.2191 0 2.283 1.0768 2.283 2.3104 0 1.9801-2.2736 2.9934-3.7898 1.6891zm108.44-3.3075c-0.9225-0.92258-0.90803-2.3781 0.034-3.3192 0.5975-0.59754 0.86604-0.67804 1.8318-0.54841 1.3676 0.1852 2.0884 0.96567 2.0884 2.267 0 1.2809-1.0052 2.2677-2.3102 2.2677-0.67382 0-1.1825-0.20787-1.6431-0.66709zm-54.209-1.1584c-2.2374-0.80277-2.1611-4.0093 0.10885-4.5789 1.5341-0.38513 3.0978 1.2639 2.7406 2.8902-0.24529 1.1176-1.828 2.0553-2.8496 1.6887zm74.415-1.7204c-0.71581-0.71585-0.80614-0.96416-0.66683-1.8346 0.19843-1.2393 1.027-1.9578 2.2585-1.9578 2.3176 0 3.1903 3.1737 1.1612 4.2229-1.1497 0.59452-1.8351 0.48718-2.7528-0.43049zm76.251-1.3338c-1.3978-0.3326-2.7773-1.3451-3.4768-2.55-0.9397-1.6188-1.0983-2.8581-0.58953-4.608 1.3862-4.7683 8.0801-5.4331 10.403-1.033 1.6783 3.179-0.13191 7.282-3.5976 8.1547-1.3015 0.32882-1.5066 0.32882-2.7391 0.0378zm-540.82-0.66c-1.2047-0.5246-1.6924-1.8123-1.1318-2.9877 0.5723-1.2004 1.7977-1.7117 2.9533-1.2333 1.8616 0.77103 1.909 3.4617 0.0744 4.2282-1.0633 0.4441-0.85727 0.44485-1.8959 0zm42.556-0.35c-2.5538-0.96907-1.9549-4.5895 0.7465-4.5128 1.9419 0.0529 2.9182 2.2824 1.6316 3.7224-0.63568 0.71131-1.6754 1.0568-2.3781 0.7903zm-76.631-3.2923c-0.91771-0.91767-1.0249-1.6033-0.43034-2.753 1.0493-2.0292 4.2227-1.1565 4.2227 1.1611 0 1.2318-0.71826 2.0602-1.9578 2.2586-0.87024 0.13984-1.1187 0.0491-1.8345-0.66671zm-17.012-2.3524c-1.3594-1.3595-0.62604-3.5524 1.2907-3.8593 0.87024-0.13984 1.1187-0.0491 1.8345 0.66709 0.91771 0.91767 1.0249 1.6029 0.43034 2.7526-0.68262 1.3202-2.4559 1.5394-3.5556 0.43956zm434.24 0.12094c-0.72786-0.30614-1.4872-1.9215-1.2357-2.6321 0.50229-1.4196 2.0331-2.0995 3.4778-1.5451 0.68395 0.26079 1.2929 1.6675 1.1012 2.5406-0.30992 1.412-1.9544 2.2167-3.3433 1.6365zm-401.82-0.37795c-1.9281-1.4638-0.42255-4.6314 1.9531-4.1095 2.6048 0.57222 2.162 4.5037-0.50445 4.4799-0.5345 0-1.1864-0.17007-1.4487-0.37039zm317.76-1.7745c-1.0137-1.0137-1.0624-2.2235-0.12737-3.1586 1.41-1.4101 3.9532-0.43502 3.9532 1.5156 0 1.0821-1.2845 2.4374-2.3102 2.4374-0.43479 0-1.0368-0.3137-1.5157-0.79446zm-136.62-1.6339c-3.0833-1.9355-2.4163-6.6304 1.0763-7.5757 4.1886-1.1339 7.0262 3.9712 3.8945 7.0065-0.81815 0.79294-1.1756 0.93845-2.5192 1.0246-1.2283 0.0794-1.7567-0.0378-2.4516-0.45544zm60.793-2.171c-0.75012-0.75023-0.84064-0.99175-0.70034-1.8682 0.30689-1.9166 2.4997-2.6498 3.8591-1.2907 1.3595 1.3595 0.62604 3.5524-1.2907 3.8593-0.87647 0.13984-1.118 0.0491-1.8681-0.70035zm103.47-1.2344c-1.2939-0.4611-2.4943-1.5723-3.2164-2.9768-0.42539-0.82734-0.52343-1.4423-0.43971-2.7572 0.14249-2.2398 1.0865-3.6423 3.1206-4.6375 1.2505-0.61191 1.7-0.69544 3.0078-0.56051 6.067 0.62589 6.9777 9.0818 1.187 11.021-1.2028 0.4029-2.3592 0.37417-3.6592-0.0907zm47.243-8.6464c-1.5883-1.3659-0.59728-4.001 1.5048-4.001 2.1066 0 3.1157 2.6154 1.534 3.9761-0.94571 0.81335-2.1111 0.82318-3.0388 0.0378zm-264.72-0.32126c-0.82156-0.82129-0.88842-2.2605-0.1474-3.1756 0.412-0.50872 0.78274-0.64176 1.7906-0.64176s1.3786 0.13228 1.7906 0.64176c1.2455 1.5383 0.17159 3.8426-1.7906 3.8426-0.67381 0-1.1825-0.20787-1.6431-0.66709zm195.63 0.17764c-0.80881-0.12094-1.704-1.3043-1.704-2.2507 0-0.42028 0.28989-1.1006 0.64422-1.5126 1.8996-2.2084 5.2413 0.66746 3.4386 2.9594-0.55366 0.70374-1.3211 0.96302-2.3788 0.8039zm-260.33-1.8c-1.5508-1.3338-0.53136-3.9761 1.534-3.9761 1.2345 0 2.2286 1.0307 2.2286 2.31 0 2.0304-2.2046 3.0062-3.7626 1.666zm473.9-0.22299c-2.4523-1.2567-3.0966-4.3136-1.3326-6.3228 1.0216-1.1633 2.1399-1.6086 3.6224-1.4415 3.8861 0.43805 5.0172 5.2365 1.7869 7.5806-1.147 0.83225-2.6769 0.90142-4.0768 0.1852zm-373.1-0.49361c-0.72786-0.30236-1.4872-1.9215-1.2358-2.6321 0.36926-1.0435 1.2525-1.714 2.2464-1.705 1.1514 0 1.7979 0.44183 2.1846 1.4593 0.73111 1.923-1.2374 3.696-3.1953 2.8777zm459.54-3.7346c-1.3275-0.66709-2.1797-2.0444-2.1797-3.5229 0-3.8306 4.3695-5.7226 7.0424-3.0497 3.3315 3.3316-0.63708 8.6956-4.8627 6.5726zm9.0994-0.91389c-0.88289-0.50117-1.223-1.0983-1.223-2.1479 0-1.6887 1.5617-2.7046 3.1425-2.0443 2.1559 0.90066 1.7522 3.9436-0.57835 4.3586-0.43865 0.0794-1.0421 0.003-1.3411-0.1663zm8.1221-9.0561c-1.8669-0.81259-1.683-3.575 0.28119-4.2232 2.7941-0.92221 4.3281 3.1053 1.6146 4.2387-1.0523 0.43994-0.8459 0.44145-1.8958 0zm-101.38-0.83c-2.4341-1.0594-1.0856-4.9402 1.5179-4.3684 2.26 0.49663 2.4377 3.6934 0.24794 4.4568-0.47532 0.1663-0.87651 0.29858-0.89155 0.29102-0.0151 0-0.40846-0.17763-0.87421-0.37908zm-36.511-2.002c-0.91771-0.91767-1.0249-1.6029-0.43034-2.7526 0.65209-1.2612 2.2746-1.5126 3.5066-0.54349 0.55019 0.43275 0.71615 0.8039 0.71615 1.6006 0 1.3338-0.68357 2.1585-1.9578 2.3626-0.87028 0.13984-1.1187 0.0491-1.8346-0.66709zm106.99 0.21544c-1.2251-0.96378-1.1987-2.7628 0.0548-3.7251 0.75061-0.57637 2.3073-0.42028 2.9831 0.29859 1.947 2.0723-0.80833 5.1798-3.0379 3.4261zm-161.87-0.56353c-2.6736-0.56542-4.0719-3.5509-2.7915-5.9603 1.5588-2.9333 5.8034-2.925 7.3106 0 0.74135 1.446 0.75908 2.2212 0.0847 3.7062-0.80111 1.7647-2.6347 2.6566-4.6038 2.2401zm-62.791-8.4208c-0.93668-0.38286-1.365-1.0609-1.375-2.1762-0.0151-1.6698 1.5569-2.6872 3.1338-2.0281 1.5018 0.6274 1.9226 2.3361 0.86635 3.518-0.71709 0.80277-1.7074 1.0617-2.6252 0.68636zm-333.24-2.79c-0.85701-0.43352-1.4587-1.66-1.2406-2.5289 0.63617-2.5349 4.5019-2.2239 4.5019 0.36284 0 1.2159-0.23811 1.6721-1.1066 2.1211-0.93438 0.4834-1.276 0.49058-2.1548 0.0453zm253.75-1.8425c-0.83739-0.6584-0.98313-2.1959-0.30047-3.1703 0.94968-1.3557 3.3425-0.94488 3.9603 0.67994 0.83766 2.2031-1.7694 3.9776-3.6596 2.4903zm62.612-0.65726c-1.7317-1.8433 0.35716-4.7127 2.6357-3.6204 1.5218 0.72945 1.7556 2.9053 0.42104 3.9182-0.8106 0.61531-2.3387 0.4664-3.0567-0.29858zm9.3259-0.18898c-0.74869-0.36283-1.2876-1.635-1.0661-2.5179 0.66081-2.6328 4.512-2.18 4.512 0.53064 0 1.8025-1.7458 2.809-3.4459 1.9873zm-88.121-1.0545c-0.93525-0.38249-1.3663-1.0624-1.3663-2.1558 0-1.1648 0.46091-1.813 1.5621-2.197 1.6303-0.56844 3.2906 0.98532 2.9091 2.722-0.30728 1.3984-1.7806 2.1721-3.105 1.6309zm114.26-0.11716c-2.9411-1.0405-3.6863-4.8495-1.3502-6.9007 1.1299-0.99212 1.9428-1.2355 3.4494-1.0337 1.3738 0.1852 2.3726 0.88819 2.9963 2.1112 1.1953 2.3441 0.0499 5.0729-2.4862 5.9221-1.1408 0.38211-1.2625 0.37795-2.6093-0.0983zm-428.63-4.5982c-2.641-1.1497-3.1952-4.8234-1.0351-6.861 2.589-2.4416 6.9015-0.54539 6.9015 3.0346 0 3.0047-3.1041 5.0294-5.8664 3.8264zm466.95-0.56541c-4.0413-1.429-4.4192-7.228-0.59176-9.0807 3.5286-1.7083 7.2504 0.58281 7.2504 4.4632 0 2.2322-1.2847 3.959-3.5058 4.7123-1.1796 0.40025-1.8065 0.38136-3.1529-0.0945zm-63.066-1.6176c-0.93509-0.93506-0.88634-2.1453 0.12737-3.1589 0.84794-0.84775 1.5956-0.98797 2.5528-0.47811 2.1698 1.1554 1.4112 4.3041-1.037 4.3041-0.67381 0-1.1825-0.20787-1.6431-0.66708zm-60.46-0.22677c-1.4916-0.7544-1.703-3.0372-0.36284-3.9156 1.6104-1.0549 3.6319-0.0491 3.6154 1.8006-0.0113 1.1512-0.44205 1.7979-1.4581 2.1842-0.92534 0.3515-0.96537 0.3515-1.7947-0.068zm-327.13-0.1852c-2.2982-0.95055-1.6258-4.4655 0.85421-4.4655 1.9663 0 3.0037 2.2919 1.6986 3.7527-0.6991 0.78236-1.7054 1.0632-2.5528 0.71282zm106.83-0.37c-2.4911-1.0844-3.1556-4.4678-1.3087-6.6626 1.7481-2.0776 5.5554-1.5821 6.7212 0.87496 1.023 2.1558 0.2846 4.5294-1.7302 5.5623-1.3474 0.69127-2.4569 0.75893-3.6824 0.22677zm234.71-2.7961c-2.0113-0.73927-2.0168-3.6835-0.008-4.3839 1.898-0.6618 3.6206 1.0428 2.9624 2.931-0.41457 1.1894-1.8076 1.8746-2.9541 1.4528zm-325.5-3.1695c-1.5298-1.316-0.50317-3.9757 1.5345-3.9757 1.2191 0 2.283 1.0764 2.283 2.31 0 1.9994-2.2752 2.9922-3.8175 1.6656zm-11.511-4.3276c-0.85701-0.43351-1.4586-1.66-1.2406-2.5289 0.63617-2.5349 4.502-2.2239 4.502 0.36283 0 1.2155-0.23811 1.6717-1.1066 2.1211-0.93434 0.48302-1.276 0.4902-2.1548 0.0453zm294.34-0.32c-1.7317-1.8433 0.35717-4.7123 2.6357-3.6204 0.91945 0.4407 1.547 1.6562 1.3207 2.558-0.44383 1.7681-2.7192 2.3792-3.9564 1.0624zm15.49-1.6898c-2.0161-0.74155-2.0165-3.6839 0-4.3865 1.2328-0.42974 2.5144 0.21165 3.0108 1.5114 0.62714 1.6396-1.3179 3.4972-3.0102 2.8751zm-38.225-2.8974c-1.5508-1.3342-0.53137-3.9764 1.534-3.9764 0.43412 0 1.1199 0.28724 1.534 0.64441 1.5508 1.3338 0.53136 3.9761-1.534 3.9761-0.43407 0-1.1198-0.28724-1.534-0.64403zm-142.41-6.69c-2.2982-0.95056-1.6258-4.4655 0.85425-4.4655 1.9663 0 3.0037 2.2919 1.6986 3.7527-0.6991 0.78236-1.7054 1.0632-2.5529 0.71282zm270.34-1.0885c-1.6748-1.6747-0.14135-4.4546 2.1767-3.9454 1.6252 0.35528 2.23 2.7284 0.99231 3.8914-0.81819 0.76876-2.4271 0.79597-3.169 0.0529zm-315.99-2.02c-1.8547-0.8073-1.6839-3.5747 0.26041-4.2164 2.8032-0.92485 4.3568 3.0951 1.6356 4.2319-1.0523 0.43994-0.8459 0.44145-1.8958 0zm132.55-0.35905c-0.32013-0.26079-0.65446-0.92863-0.74309-1.4823-0.13947-0.87005-0.0491-1.1187 0.66682-1.8346 0.87949-0.87911 1.6206-1.0258 2.5863-0.51174 1.3681 0.72869 1.6878 2.3448 0.7098 3.5883-0.68164 0.86627-2.3054 0.98759-3.2198 0.24189zm-62.521-2.4612c-1.0133-1.0133-1.0874-2.1649-0.20523-3.1903 1.3211-1.536 3.9995-0.52687 3.9995 1.5069 0 1.0205-0.99311 2.1305-2.0954 2.3422-0.72948 0.13984-1.0078 0.0378-1.6987-0.65877zm13.171 0.44561c-1.3598-0.80807-1.6394-2.4514-0.61152-3.594 1.3625-1.5141 4.0088-0.56541 4.0088 1.4374 0 1.6169-2.0817 2.9382-3.3973 2.1566zm32.213-1.5787c-1.6748-1.6747-0.14136-4.4546 2.1767-3.9454 1.6252 0.35527 2.2301 2.7284 0.99232 3.8914-0.81819 0.76838-2.4271 0.79597-3.169 0.0529zm342.62-4.3631c-2.6124-0.78274-3.6485-4.4368-1.8605-6.5616 3.2888-3.9084 9.3018 0.24567 6.7997 4.698-0.95535 1.6996-2.9611 2.4567-4.9392 1.8637zm-180.91-0.89c-3.9787-2.1037-2.2221-8.1101 2.259-7.7238 2.2478 0.19275 3.7621 1.8558 3.7621 4.1295 0 1.6516-0.7389 2.8528-2.2154 3.6011-1.522 0.77141-2.3368 0.77027-3.8057 0zm-279.88-4.18c-1.7797-0.87722-2.7263-3.4099-1.9632-5.2524 0.49833-1.203 1.9598-2.3648 3.2484-2.5826 2.5964-0.4388 5.208 2.1649 4.7703 4.7554-0.4684 2.7727-3.5249 4.3268-6.0555 3.0796zm-110.05-3.9c-0.76588-0.30992-1.1729-1.087-1.1729-2.2428 0-1.1694 0.93339-2.1037 2.1016-2.1037 1.2248 0 1.6722 0.23811 2.1383 1.1399 1.0474 2.0254-0.91268 4.0747-3.0671 3.2066zm453.54-1.4075c-1.4128-0.73852-2.1944-2.0277-2.1944-3.6185 0-3.3124 3.824-5.3189 6.5021-3.4122 3.0873 2.1986 1.8277 7.146-1.9187 7.5364-0.88626 0.0907-1.4902-0.0378-2.389-0.5057zm-271.13-0.80693c-0.87742-0.48-1.2231-1.0836-1.2231-2.1366 0-2.6997 4.0042-3.0592 4.5022-0.40403 0.3583 1.9094-1.6246 3.4458-3.2792 2.5406zm-61.164-4.43c-1.5836-1.5836 0.003-4.3895 2.1739-3.8449 2.6329 0.66104 2.1798 4.512-0.5308 4.512-0.67382 0-1.1825-0.20788-1.6431-0.66709zm42.201-1.0522c-2.4026-0.74759-4.0073-2.917-3.997-5.4043 0.0151-3.3782 2.3073-5.65 5.7036-5.65 4.9678 0 7.4222 6.1141 3.8534 9.5989-0.62854 0.61379-1.5807 1.1871-2.3616 1.4222-1.5233 0.45846-1.8213 0.46148-3.1984 0.0378zm124.01-2.0183c-1.3977-0.70223-2.1799-2.0338-2.1787-3.7088 0-1.804 0.73985-3.0225 2.2469-3.7066 1.501-0.68145 2.2726-0.6652 3.7217 0.0794 3.7836 1.94 2.3609 7.813-1.8928 7.813-0.52316 0-1.3768-0.21543-1.8971-0.47546zm-196.97-0.24c-1.8587-0.91615-2.6562-3.7293-1.6188-5.7097 1.4468-2.7624 5.9002-2.6513 7.3242 0.18142 1.8215 3.6253-2.018 7.3448-5.7053 5.5268zm271.28 0.0756c-3.3645-1.5254-2.8235-6.8319 0.78924-7.7416 4.253-1.0711 7.0243 3.953 3.8681 7.0122-0.78868 0.76422-1.1887 0.93467-2.3833 1.014-0.85047 0.0567-1.7774-0.0605-2.274-0.28346zm248.07-2.1604c-1.1705-1.2461-0.56704-3.5025 1.0304-3.8532 2.3179-0.5091 3.8515 2.2707 2.1767 3.9454-0.77102 0.77102-2.4412 0.72302-3.2072-0.0907zm38.181-0.0378c-2.0352-0.73209-3.0984-2.4359-2.8192-4.518 0.5266-3.9258 5.8722-4.8499 7.7303-1.3364 0.77677 1.4687 0.77821 2.2836 0.008 3.8056-0.96382 1.9015-2.9852 2.7436-4.9179 2.0489zm-57.253-0.88025c-2.5127-0.95358-1.9652-4.543 0.69294-4.543 2.6574 0 3.006 4.0328 0.39421 4.5604-0.3738 0.0756-0.86291 0.068-1.0872 0zm-456.77-2.25c-2.2982-0.95055-1.6258-4.4651 0.85421-4.4651 1.9663 0 3.0037 2.2915 1.6986 3.7523-0.6991 0.78236-1.7054 1.0636-2.5528 0.71282zm334.61-0.0529c-2.0552-0.76459-3.4029-2.6438-3.3913-4.7282 0.008-1.214 0.75001-3.0176 1.5283-3.7085 1.469-1.3047 3.8298-1.6309 5.6893-0.78614 2.7204 1.2355 3.6484 4.7444 1.9382 7.3289-1.1303 1.708-3.8572 2.6041-5.7646 1.8939zm218.75-5.1095c-2.2982-0.95055-1.6258-4.4655 0.85421-4.4655 1.9663 0 3.0037 2.2919 1.6986 3.7523-0.6991 0.78237-1.7054 1.0636-2.5528 0.7132zm-484.95-6.5242c-1.1757-1.1758-0.86332-3.0516 0.62714-3.7659 1.5433-0.73965 3.1709 0.32882 3.1709 2.081 0 0.73549-0.18406 1.2125-0.62906 1.6305-0.81815 0.76876-2.4271 0.79635-3.169 0.0529zm465.83-3.3483c-1.0347-0.52347-1.4651-1.6286-1.0839-2.7836 0.36132-1.0949 0.95002-1.485 2.2417-1.485 1.6215 0 2.6251 1.5942 1.9782 3.1423-0.55543 1.3296-1.8296 1.787-3.136 1.1263zm-549.98-1.41c-0.92251-0.92258-0.90803-2.3781 0.034-3.3192 0.59751-0.59716 0.86604-0.67767 1.8318-0.54803 1.3677 0.18142 2.0885 0.96567 2.0885 2.2666 0 1.2813-1.0052 2.2677-2.3102 2.2677-0.67381 0-1.1825-0.20787-1.6431-0.66709zm-18.061-0.50003c-2.2097-1.1176-1.3502-4.3975 1.134-4.3268 2.2462 0.0642 3.007 3.2542 1.0209 4.2811-0.93438 0.48302-1.276 0.49058-2.1548 0.0453zm431.42-5.8968c-0.80368-0.32504-1.456-1.3323-1.456-2.2496 0-1.9166 2.8687-2.8959 4.057-1.3852 0.97799 1.2431 0.65828 2.8592-0.7098 3.5879-0.685 0.36661-1.0788 0.37417-1.8913 0.0454zm-553.88-0.69c-1.3901-1.3901-0.32504-3.9534 1.6431-3.9534 0.74056 0 1.7101 0.61115 2.0084 1.2658 0.77352 1.6978-0.21846 3.3547-2.0084 3.3547-0.67381 0-1.1825-0.20788-1.6431-0.66709zm636.94-0.11c-1.0858-0.58242-2.177-2.4291-2.1764-3.6835 0-1.8788 1.674-3.7455 3.6969-4.125 1.1224-0.21165 3.211 0.74419 3.9963 1.8266 1.2995 1.7915 0.53994 4.9546-1.4384 5.9902-1.2147 0.63571-2.8835 0.63231-4.0785 0zm-657.48-1.8c-2.5041-1.361-0.76041-5.111 1.939-4.17 1.889 0.6584 1.9561 3.4242 0.10167 4.1991-1.095 0.45732-1.1467 0.45656-2.0408-0.0378zm11.569-5.9671c-1.4381-1.4381-0.43328-3.9534 1.5795-3.9534 1.6601 0 2.758 1.6781 2.1144 3.2315-0.59936 1.4472-2.5814 1.8342-3.6939 0.72189zm106.54 0c-0.77344-0.77367-0.89053-2.1543-0.2589-3.0558 0.90062-1.2858 3.3362-0.99742 3.9428 0.46677 0.41223 0.99515 0.11906 2.3248-0.62778 2.8479-0.90153 0.63156-2.2824 0.5144-3.0559-0.26078zm437.03-1.6309c-1.2547-1.2544-0.6895-3.4541 0.98188-3.8211 1.7937-0.39421 3.2334 1.0458 2.8395 2.8392-0.36699 1.6717-2.5667 2.2367-3.8214 0.98192zm-329.67-0.27213c-1.5836-1.5836 0.003-4.3895 2.1739-3.8449 2.6329 0.66104 2.1798 4.512-0.5308 4.512-0.67381 0-1.1825-0.20787-1.6431-0.66709zm395.59-1.0314c-2.8148-1.4268-3.0526-5.167-0.45154-7.1059 1.1265-0.83981 3.5342-0.79937 4.767 0.0794 2.4464 1.745 2.1661 5.6043-0.50979 7.0193-1.4689 0.77669-2.2837 0.77821-3.8057 0zm-197.58 0c-1.4916-0.75439-1.703-3.0372-0.36245-3.9152 1.5827-1.0371 3.6241-0.0529 3.6241 1.7503 0 1.262-0.37757 1.8622-1.3937 2.2163-1.0585 0.3704-1.0354 0.3704-1.8677-0.0529zm139.28-2.4896c-1.3595-1.3595-0.62604-3.5524 1.2907-3.8593 0.87027-0.13984 1.1187-0.0491 1.8345 0.66709 0.91771 0.91767 1.0249 1.6029 0.43034 2.7526-0.68262 1.3202-2.4558 1.5394-3.5556 0.43956zm-445.76-1.49c-1.4533-0.60133-1.8779-2.4771-0.83509-3.6892 1.3212-1.536 3.9995-0.52687 3.9995 1.5069 0 1.5103-1.7955 2.7485-3.1644 2.1823zm299.41-0.24189c-1.0858-0.58243-2.177-2.4291-2.1764-3.6832 0-1.8788 1.674-3.7455 3.6969-4.1254 1.1224-0.21165 3.211 0.74419 3.9963 1.827 1.2995 1.7915 0.53999 4.9546-1.4384 5.9902-1.2147 0.63572-2.8835 0.63231-4.0785 0zm134.93-1.2499c-1.5836-1.5836 0.003-4.3899 2.1738-3.8449 2.6329 0.66104 2.1799 4.512-0.53076 4.512-0.67381 0-1.1825-0.20787-1.6431-0.66708zm-565-0.43c-1.8278-0.56693-3.0101-2.4181-2.8185-4.413 0.15005-1.5617 0.82738-2.6014 2.1259-3.2636 3.9275-2.0024 7.7369 2.4718 5.2873 6.2105-0.79555 1.214-3.0689 1.9396-4.5948 1.4661zm-14.449-1.4816c-0.44935-0.44938-0.66713-0.97171-0.66713-1.6006 0-1.3009 0.72076-2.0833 2.0885-2.2666 0.96574-0.1285 1.2343-0.0491 1.8318 0.54803 1.4975 1.4974 0.49224 3.9863-1.61 3.9863-0.67381 0-1.1825-0.20787-1.643-0.66709zm254.47-0.48075c-1.1006-0.63799-2.1041-2.3263-2.1041-3.5407 0-3.6132 4.6686-5.5737 7.13-2.9938 1.3996 1.4672 1.6289 3.0168 0.7231 4.8877-1.0199 2.1071-3.6534 2.8611-5.749 1.6467zm333.82-0.68145c-2.5364-0.88517-1.9554-4.5305 0.72208-4.5305 1.1896 0 2.2675 1.0855 2.2675 2.2832 0 1.3769-1.7385 2.6838-2.9896 2.2473zm-487.48-0.33638c-2.2982-0.95055-1.6258-4.4655 0.85421-4.4655 1.9663 0 3.0037 2.2919 1.6987 3.7527-0.69914 0.78236-1.7055 1.0632-2.5529 0.71282zm662.54-1.6373c-0.50593-0.12095-1.3538-0.65348-1.8842-1.1838-0.84276-0.84283-0.97701-1.163-1.0656-2.541-0.1183-1.8402 0.45086-3.0066 1.8967-3.8884 2.1102-1.2866 5.3539-0.13985 6.0456 2.1358 0.99659 3.2799-1.7193 6.2596-4.9926 5.4773zm-112.82-1.5492c-2.9281-1.519-2.9292-5.7986-0.003-7.3466 0.64305-0.34015 1.491-0.61795 1.8842-0.61795 1.122 0 3.0746 1.1301 3.6324 2.1022 1.0222 1.7813 0.46605 4.3291-1.2192 5.585-1.0235 0.76309-3.101 0.89688-4.2955 0.27591zm-350.65-0.49512c-1.6517-0.89726-1.4575-3.5509 0.30501-4.1654 2.7351-0.95357 4.4505 2.8554 1.8838 4.1828-0.93668 0.48416-1.27 0.48151-2.1886 0zm130.62-4.5759c-2.6465-1.2-3.3247-4.8136-1.2712-6.7725 1.4399-1.3735 3.0123-1.6158 4.818-0.74154 3.694 1.7881 2.5898 7.3969-1.5318 7.7798-0.6689 0.0605-1.5475-0.0529-2.0149-0.26457zm281-2.0598c-2.3663-1.4426-0.52936-4.9644 2.1096-4.0445 1.8668 0.65084 1.9188 3.422 0.0786 4.1911-1.1484 0.47962-1.1629 0.47887-2.1883-0.1474zm-565.67-1.36c-1.6617-1.6619-0.26721-4.3971 2.0225-3.9674 2.6976 0.50608 2.2679 4.5041-0.48416 4.5041-0.63496 0-1.1981-0.19653-1.5383-0.53669zm219.39-0.9978c-1.9497-0.96113-2.7018-3.8816-1.4996-5.8231 1.6599-2.6808 5.7946-2.5107 7.205 0.2948 1.8214 3.6253-2.018 7.3448-5.7054 5.5268zm-119.38-0.13984c-1.8129-0.51893-2.9903-2.129-2.9886-4.0872 0.004-4.7856 6.8909-5.5332 8.1245-0.88214 0.81419 3.0701-2.0587 5.8496-5.1358 4.9693zm264.84-2.9325c-0.8527-0.34394-1.2644-0.99364-1.294-2.0372-0.0593-2.0886 2.4693-3.1525 3.8923-1.6377 1.7589 1.872-0.20258 4.6458-2.5983 3.6748zm-213.42-1.24c-0.65549-0.55181-0.86484-0.94866-0.86484-1.6396 0-2.1316 2.4452-3.1423 3.9533-1.6343 1.2794 1.2794 0.48223 3.4832-1.3898 3.8419-0.65201 0.12472-1.0224 0-1.6987-0.56807zm151.4-3.6676c-1.4458-0.88139-2.0149-2.0481-1.8967-3.888 0.0884-1.375 0.22337-1.6989 1.0572-2.5327 0.53884-0.53896 1.3906-1.0541 1.9521-1.1807 1.4573-0.32882 2.8529 0.0907 3.9445 1.1807 0.83369 0.83376 0.96888 1.1577 1.0572 2.5327 0.0798 1.2397-0.0189 1.7658-0.45483 2.462-0.78119 1.2446-2.0844 1.9661-3.5507 1.9661-0.742 0-1.5714-0.21165-2.1088-0.54009zm-351.67-2.722c-0.9682-0.39004-1.5301-1.4846-1.3246-2.5799 0.49602-2.6442 4.5174-2.2968 4.4936 0.38778-0.0113 1.07-0.36246 1.6702-1.2645 2.1506-0.68734 0.36661-1.0781 0.37417-1.9045 0.0416zm241.86-0.44938c-1.4287-0.70413-2.0977-1.8754-2.0977-3.6726 0-1.1441 0.14778-1.7412 0.57195-2.3104 1.9388-2.6007 5.6792-2.363 7.1059 0.45165 0.77144 1.522 0.77001 2.3369-0.008 3.8056-1.0554 1.996-3.4938 2.7507-5.5735 1.7257zm-302.83-2.6801c-0.44954-0.47848-0.63624-0.98267-0.61689-1.6653 0.03402-1.2042 0.73943-1.962 2.0188-2.1694 2.1119-0.34394 3.3724 2.2378 1.8728 3.834-0.88751 0.9445-2.3876 0.94488-3.2747 0zm10.341 0.14741c-1.6617-1.6615-0.26721-4.3967 2.0225-3.9674 2.6976 0.50607 2.2679 4.5041-0.48412 4.5041-0.635 0-1.1981-0.19654-1.5383-0.53669zm-42.269 0.0378c-0.29896-0.13228-0.91049-0.62853-1.3589-1.1025-0.74434-0.78614-0.81536-1.025-0.81536-2.7413 0-1.8059 0.0397-1.92 1.0054-2.8857 0.88747-0.88743 1.1902-1.0171 2.582-1.1066 1.2398-0.0794 1.7658 0 2.4624 0.45467 2.4217 1.5205 2.6588 4.7739 0.49523 6.7952-0.54803 0.51212-1.063 0.68107-2.268 0.74494-0.85747 0.0454-1.8036-0.0378-2.1026-0.15874zm112.66-0.90898c-1.4441-0.7404-2.184-2.0145-2.184-3.7606 0-4.1511 5.5796-5.5442 7.7006-1.9223 0.64679 1.1044 0.64392 3.0592-0.008 4.1922-0.55472 0.9668-2.5086 2.1022-3.6176 2.1022-0.3851 0-1.2369-0.2759-1.8928-0.61153zm189.8-0.0416c-0.92765-0.41083-1.1958-0.88252-1.1958-2.1044 0-1.1471 0.40172-1.7598 1.3764-2.0995 1.7702-0.6172 3.5018 0.89046 3.1038 2.7024-0.31975 1.4559-1.8286 2.146-3.2845 1.5016zm-128.92-2.55c-2.5553-1.2835-0.94726-5.0374 1.7732-4.1393 1.0951 0.36284 1.485 0.95017 1.485 2.2416 0 1.6936-1.6969 2.6816-3.2582 1.8977zm108.74-3.6004c-1.153-0.27212-2.1697-1.0163-2.9484-2.1604-2.0162-2.962-0.19578-7.1588 3.2747-7.55 2.6053-0.2948 4.4112 0.63609 5.3805 2.77 0.61357 1.3508 0.64184 2.5689 0.0903 3.8891-0.99821 2.389-3.3503 3.6272-5.797 3.0512zm333.18-0.88176c-2.9437-1.5095-2.9378-5.6784 0.0113-7.22 1.4185-0.74192 3.1559-0.68599 4.2915 0.13606 1.0826 0.78539 2.0373 2.874 1.8267 3.9965-0.37818 2.016-2.2461 3.696-4.1104 3.6968-0.45415 0.00038-1.3624-0.27591-2.0183-0.61077zm-351.56-0.17764c-0.29896-0.13228-0.91049-0.62853-1.3589-1.1025-0.74287-0.78463-0.81536-1.0269-0.81536-2.7239 0-1.612 0.0915-1.9608 0.67945-2.5901 2.0388-2.1819 5.2856-1.9544 6.8121 0.47697 0.43726 0.69657 0.53443 1.2227 0.45479 2.4624-0.0892 1.386-0.22072 1.6962-1.0883 2.5636-0.87493 0.87496-1.1661 0.99666-2.5636 1.0707-0.8671 0.0454-1.8212-0.0378-2.1201-0.15874zm-213.93-2.5897c-2.4341-1.0594-1.0856-4.9398 1.5179-4.368 2.2599 0.49625 2.4377 3.6934 0.24794 4.4564-0.47528 0.1663-0.87647 0.29858-0.89155 0.29102-0.01512 0-0.40845-0.17763-0.87417-0.37908zm289.71 0.12472c-2.2982-0.95055-1.6258-4.4655 0.85421-4.4655 1.9663 0 3.0037 2.2919 1.6986 3.7527-0.6991 0.78237-1.7054 1.0632-2.5528 0.71282zm133.4-3.8158c-0.72783-0.30614-1.4872-1.9215-1.2357-2.6321 0.50234-1.4192 2.0331-2.0995 3.4778-1.5451 0.6839 0.26079 1.2929 1.6675 1.1011 2.5406-0.30993 1.412-1.9544 2.2167-3.3433 1.6365zm-418.6-1.547c-0.22413-0.0831-0.8075-0.52611-1.2962-0.98835-3.0908-2.9231-0.16479-8.039 3.9595-6.923 4.5618 1.2348 3.7005 8.1611-1.0048 8.0806-0.68791 0-1.4342-0.0869-1.6585-0.17007zm474.41-2.01c-2.7172-0.98759-3.6743-4.3242-1.8593-6.4811 1.4235-1.6917 3.3182-2.0742 5.2904-1.0681 2.0135 1.0269 2.7424 4.1186 1.3962 5.9218-1.1754 1.5742-3.146 2.2386-4.8273 1.6275zm148.53-1.3833c-2.8149-1.4268-3.0526-5.1674-0.45158-7.1063 1.0958-0.81676 3.5347-0.799 4.7028 0.0378 1.1995 0.85569 1.8224 2.2998 1.671 3.8752-0.15156 1.5772-0.82533 2.5463-2.2669 3.2606-1.4191 0.70299-2.1678 0.69014-3.6554-0.0643zm-69.933-0.068c-1.5242-0.38702-2.5158-1.228-3.2029-2.7167-1.9561-4.2384 2.6462-8.6275 6.8245-6.5084 0.92814 0.47055 2.0794 1.7284 2.4288 2.6532 0.39719 1.0511 0.36245 2.7458-0.0782 3.7999-0.33638 0.80541-2.1046 2.6283-2.564 2.6434-0.10696 0.004-0.62815 0.10582-1.1583 0.23055-0.60404 0.13984-1.4441 0.10205-2.25-0.10205zm-617.57-0.77c-1.881-0.8194-2.9482-3.2152-2.303-5.1704 0.40055-1.2136 1.897-2.5232 3.1523-2.7587 3.7979-0.71244 6.4637 3.7701 3.9903 6.7094-1.2527 1.4888-3.1333 1.9627-4.8395 1.2196zm8.8519-0.0945c-1.3275-0.66709-2.1797-2.0444-2.1797-3.5229 0-3.8306 4.3695-5.7226 7.0424-3.0497 3.3315 3.3316-0.63707 8.6956-4.8627 6.5726zm761.27-1.6913c-1.172-1.172-0.86385-3.0516 0.61678-3.761 2.2786-1.0923 4.3674 1.7771 2.6357 3.6204-0.81094 0.86287-2.4586 0.9343-3.2525 0.13984zm-449.81-0.50117c-0.61569-0.32126-1.1716-0.94072-1.5889-1.77-0.85678-1.7027-0.64906-3.3162 0.59694-4.6375 2.8134-2.9832 7.7144-0.66784 7.1705 3.3872-0.37848 2.8218-3.5698 4.3816-6.1785 3.0202zm-250.14-5.5533c-1.5144-1.3625-0.56568-4.0086 1.4372-4.0086 1.0345 0 2.155 0.97549 2.362 2.0568 0.12472 0.65197 0.0011 1.0224-0.56799 1.6985-0.90402 1.0745-2.2053 1.1766-3.2313 0.25323zm43.842-2.9008c-1.5326-1.5326-0.62404-3.8256 1.5157-3.8256 2.3572 0 3.258 3.1604 1.2036 4.2225-1.1404 0.58998-1.8339 0.48869-2.7193-0.39685zm505.94-0.68788c-0.46058-0.46035-0.66713-0.96907-0.66713-1.643 0-0.67389 0.20637-1.1826 0.66713-1.643 0.46057-0.46072 0.96926-0.66709 1.6431-0.66709 0.67378 0 1.1825 0.20788 1.6431 0.66709 0.46053 0.46035 0.66708 0.96907 0.66708 1.643 0 0.67389-0.20636 1.1826-0.66708 1.643-0.46061 0.46073-0.9693 0.66709-1.6431 0.66709-0.67381 0-1.1825-0.20788-1.6431-0.66709zm70.121-0.49738c-1.5359-1.321-0.52687-3.9995 1.5068-3.9995 1.0207 0 2.1308 0.99326 2.3422 2.0958 0.13984 0.72945 0.0302 1.0076-0.65885 1.6985-1.0133 1.0133-2.1648 1.0874-3.1902 0.20409zm-216.21-0.98873c-0.84798-0.84812-0.98805-1.5957-0.47827-2.5527 1.1556-2.1698 4.3042-1.4113 4.3042 1.0367 0 2.14-2.2933 3.0486-3.8259 1.516zm-139.06-1.8686c-0.80882-0.12094-1.7041-1.3043-1.7041-2.2507 0-0.4199 0.28989-1.1006 0.64426-1.5126 1.8996-2.2084 5.2413 0.66784 3.4386 2.9594-0.55366 0.70375-1.3211 0.9634-2.3788 0.8039zm-74.715-2.0035c-1.2694-0.61456-1.553-2.6014-0.519-3.6352 1.4331-1.4332 3.9638-0.43049 3.9446 1.5624-0.0189 1.8195-1.7652 2.8766-3.4256 2.0727zm-152.93-0.35c-1.3922-0.49663-1.8324-0.90784-2.4405-2.2794-0.66905-1.5092-0.44292-3.0232 0.63492-4.2508 1.0358-1.18 2.136-1.6093 3.6783-1.4355 1.4903 0.1663 2.5106 0.85379 3.1575 2.1226 1.1953 2.3441 0.0499 5.0729-2.4862 5.9221-1.1347 0.38022-1.2691 0.37795-2.544-0.0794zm161.9-0.26835c-2.4911-1.0847-3.1556-4.4678-1.3087-6.6629 1.7481-2.0776 5.5554-1.5817 6.7212 0.87496 1.023 2.1558 0.2846 4.5294-1.7302 5.5627-1.3474 0.6909-2.4569 0.75893-3.6824 0.22677zm515.83-2.4321c-1.5507-1.3342-0.53137-3.9761 1.534-3.9761 0.43408 0 1.1198 0.28725 1.534 0.64403 1.5508 1.3338 0.53136 3.9761-1.534 3.9761-0.43412 0-1.1199-0.28725-1.534-0.64403zm-622.21-1.84c-1.6142-0.64403-2.9898-2.7409-2.9898-4.5585 0-2.8479 2.1633-4.9984 5.028-4.9984 3.6694 0 6.046 3.6896 4.5143 7.0084-0.5805 1.2578-1.4736 2.1517-2.5616 2.5637-0.94261 0.35527-3.0773 0.34771-3.991 0zm188.48-1.0212c-1.2931-0.59376-1.8726-1.2-2.4357-2.5478-0.77356-1.8512-0.25966-4.4742 1.1163-5.6958 2.2574-2.0047 6.0078-1.5375 7.6563 0.95395 0.59274 0.89575 0.72949 1.4154 0.72949 2.7727 0 1.3572-0.13682 1.8769-0.72949 2.7727-1.3485 2.0375-4.0678 2.7863-6.3369 1.7442zm-234.82-0.63269c-2.1116-1.211-1.3312-4.292 1.0871-4.292 2.1397 0 3.0483 2.2934 1.5157 3.826-0.83414 0.83414-1.693 0.98797-2.6028 0.46602zm436.96-1.57c-1.4458-0.88138-2.0149-2.0481-1.8967-3.888 0.0896-1.392 0.21921-1.6947 1.1067-2.5822 0.96688-0.9668 1.0778-1.0054 2.8988-1.0054 1.8271 0 1.9293 0.0378 2.9171 1.0239 0.98604 0.98608 1.0238 1.0927 1.0238 2.8996 0 1.626-0.0907 1.9729-0.67948 2.6033-1.4672 1.57-3.703 1.9654-5.3702 0.94866zm104.8-1.0991c-0.75326-0.43918-1.1416-2.013-0.71592-2.9012 0.74759-1.5598 3.0422-1.8161 3.9435-0.44069 1.0551 1.6105 0.0484 3.6318-1.8005 3.6159-0.5345 0-1.1767-0.1285-1.4271-0.27212zm-625.21-0.65c-2.7644-1.2042-3.3512-4.9198-1.0905-6.9044 1.6184-1.4211 3.7435-1.4691 5.3456-0.12094 1.617 1.3606 1.9864 3.1805 1.0418 5.1318-0.91869 1.8977-3.3184 2.7556-5.2969 1.8939zm399.23-0.26078c-1.5508-1.3338-0.53137-3.9761 1.534-3.9761 1.2346 0 2.2286 1.0303 2.2286 2.31 0 2.0304-2.2045 3.0062-3.7626 1.666zm-329.23-0.4766c-3.9655-1.581-3.3812-7.4827 0.79623-8.0428 2.2452-0.30236 4.4033 1.2552 4.7728 3.442 0.49928 2.9552-2.8197 5.6973-5.569 4.6008zm537.17-3.0796c-1.0998-1.0995-0.8806-2.8728 0.43948-3.5554 1.1497-0.59452 1.8351-0.48756 2.7528 0.43011 0.7158 0.71584 0.80613 0.96453 0.66682 1.8346-0.3069 1.917-2.4997 2.6502-3.8591 1.2907zm142.57-2.1184c-2.9438-1.5095-2.933-5.636 0.0189-7.217 0.90516-0.48454 1.4816-0.60889 2.3805-0.51213 1.5458 0.1663 2.4668 0.86287 3.2769 2.4801 0.6051 1.2079 0.63107 1.4147 0.32277 2.5678-0.76554 2.8645-3.3708 4.029-5.9992 2.6812zm-704.11-0.75c-1.5023-0.58923-1.9318-2.7156-0.76906-3.8079 1.4686-1.3795 3.9334-0.35149 3.9334 1.6377 0 1.4842-1.7873 2.7099-3.1644 2.1702zm37.854-2.7334c-0.55015-0.43275-0.71611-0.80353-0.71611-1.6006 0-1.3334 0.68353-2.1581 1.9578-2.3622 0.87024-0.13984 1.1187-0.0491 1.8345 0.66671 0.91771 0.91767 1.0249 1.6033 0.43034 2.753-0.65212 1.2608-2.2746 1.5122-3.5066 0.54312zm331.11-1.9593c-0.585-0.44901-1.0636-1.3946-1.0636-2.1007 0-0.89612 1.4318-2.1713 2.4375-2.1713 1.994 0 3.0192 2.8358 1.4667 4.0569-0.79162 0.62287-2.1734 0.72718-2.8406 0.21543zm181.04-3.7965c-2.3113-1.1807-3.0424-3.3929-1.8546-5.6107 1.5835-2.9571 5.69-2.9616 7.2344 0 0.74238 1.4196 0.68591 3.1574-0.13946 4.2913-0.58621 0.80541-2.6206 1.9396-3.4792 1.9396-0.3103 0-1.1028-0.27591-1.761-0.61153zm-225.75-1.6808c-2.6031-1.1331-0.99576-5.1076 1.7051-4.2161 1.9829 0.65424 2.1146 3.428 0.2007 4.2274-1.0638 0.44447-0.85569 0.44599-1.9059 0zm-117.11-3.28c-4.8471-1.7208-2.9021-8.7624 2.192-7.9359 2.8259 0.45883 4.3196 4.1374 2.6108 6.4305-1.1075 1.4861-3.099 2.1101-4.8029 1.5054zm174.89-4.0248c-1.0347-0.52346-1.4651-1.629-1.0839-2.7836 0.36133-1.0953 0.95003-1.4854 2.2417-1.4854 1.6215 0 2.6251 1.5946 1.9782 3.1427-0.55544 1.3293-1.8296 1.787-3.136 1.1263zm-217.85-0.54122c-1.5359-1.321-0.52687-3.9995 1.5068-3.9995 1.2191 0 2.283 1.0768 2.283 2.3104 0 1.9801-2.2736 2.9934-3.7898 1.6891zm-207.63-2.7375c-1.0066-0.46563-1.9093-1.4245-2.2921-2.4348-1.0875-2.8702 1.2378-5.8878 4.2735-5.5457 2.2555 0.25323 3.7066 1.8735 3.7066 4.1367 0 1.5719-0.46855 2.4873-1.764 3.4469-0.90202 0.66822-2.9004 0.87005-3.9241 0.39685zm417.41 0.10583c-2.0585-0.86513-1.3446-4.357 0.89068-4.357 1.2641 0 1.7068 0.23055 2.1764 1.1399 1.0179 1.9684-1.0005 4.0857-3.0671 3.2171zm-117.94-1.0874c-2.2982-0.95055-1.6258-4.4655 0.85425-4.4655 1.9663 0 3.0037 2.2919 1.6986 3.7527-0.6991 0.78236-1.7054 1.0632-2.5529 0.71282zm256.02-0.65235c-1.5508-1.3338-0.53137-3.9761 1.534-3.9761 0.43408 0 1.1199 0.28725 1.534 0.64403 1.5508 1.3342 0.53136 3.9761-1.534 3.9761-0.43411 0-1.1199-0.28725-1.534-0.64404zm-402.47 0.0567c-2.1075-1.1528-1.3425-4.3064 1.0447-4.3064 1.2315 0 2.0601 0.71811 2.2585 1.9578 0.13946 0.87005 0.0491 1.1187-0.66682 1.8346-0.8606 0.8606-1.7027 1.0246-2.6364 0.51402zm45.491-1.6384c-0.54119-0.14362-1.3894-0.67767-1.885-1.189-0.76792-0.79219-0.91578-1.1607-1.0014-2.4952-0.11716-1.8285 0.45487-2.9979 1.8974-3.8774 1.8524-1.1293 4.4692-0.47017 5.6595 1.426 0.43623 0.69467 0.53443 1.223 0.45559 2.4514-0.0854 1.3338-0.23358 1.7034-0.99897 2.4926-0.49414 0.50986-1.2201 1.0038-1.6131 1.0972-0.39307 0.0945-0.89813 0.21166-1.1224 0.26079-0.22413 0.0491-0.85047-0.0378-1.3916-0.1663zm-54.537-1.4895c-2.5652-1.2642-2.9604-4.899-0.74415-6.8447 2.055-1.8044 5.0984-1.1441 6.3495 1.378 0.50154 1.011 0.59709 1.5175 0.45014 2.3875-0.4684 2.7723-3.5249 4.3268-6.0555 3.0792zm79.52-2.2768c-2.2948-1.2117-3.2312-3.8623-2.2617-6.401 1.2702-3.326 5.8645-4.0596 8.2694-1.3206 2.212 2.5194 1.5172 6.2865-1.4217 7.7095-1.4609 0.70715-3.2611 0.71206-4.586 0zm298.95-0.0491c-1.992-1.1546-2.6767-4.114-1.3598-5.8779 0.98729-1.3225 1.8898-1.7877 3.4684-1.7877 3.174 0 5.0834 3.0384 3.7024 5.8912-1.0637 2.1974-3.6951 3.001-5.8109 1.7745zm-101.62-1.3085c-0.2502-0.1474-0.59372-0.68523-0.76297-1.1981-0.87927-2.6638 2.7349-4.2716 4.1512-1.8463 0.4345 0.74381 0.46288 1.0125 0.19314 1.8297-0.17386 0.52686-0.54282 1.079-0.82001 1.2272-0.63844 0.34016-2.1664 0.33638-2.7615 0zm-442.57-3.6333c-2.7644-1.2042-3.3512-4.9198-1.0905-6.9044 1.6185-1.4211 3.7435-1.4691 5.3456-0.12095 1.617 1.3606 1.9864 3.1805 1.0418 5.1318-0.91873 1.8977-3.3184 2.7557-5.2969 1.8939zm436.11-0.3326c-0.30993-0.39383-0.56331-1.076-0.56331-1.5156 0-1.0326 1.3115-2.3887 2.3102-2.3887 1.0256 0 2.3102 1.3553 2.3102 2.4374 0 1.9941-2.8358 3.0195-4.057 1.4668zm-212.83-2.0697c-3.4284-2.3403-1.8534-7.5439 2.2826-7.5409 0.91072 0 1.6953 0.18897 2.2858 0.54916 0.95671 0.58318 1.9427 2.3732 1.9427 3.5263 0 1.1535-0.986 2.9435-1.9427 3.5267-1.2668 0.77253-3.3887 0.74381-4.5683-0.0605zm255.54 0.24945c-2.6677-0.96756-4.0049-4.0161-2.9105-6.6353 0.80787-1.9332 2.5038-3.0588 4.61-3.0588 5.4354 0 6.8886 7.285 1.9048 9.5494-1.2415 0.56391-2.3283 0.60775-3.6043 0.14362zm40.701-4.0377c-2.4628-1.2654-3.0966-4.3151-1.3178-6.3413 1.962-2.2345 5.621-1.8134 6.8558 0.78879 0.62899 1.3255 0.56156 2.9004-0.17045 3.9757-1.4085 2.0697-3.3177 2.6306-5.3677 1.5768zm-80.401-4.111c-0.72798-0.77518-0.78501-2.3346-0.11528-3.154 0.26155-0.32126 0.92859-0.65461 1.4822-0.74305 0.87024-0.13985 1.1187-0.0491 1.8345 0.6667 0.91771 0.91767 1.0249 1.6029 0.43034 2.7526-0.67521 1.3058-2.6142 1.561-3.6318 0.47774zm-263.96-3.16c-0.84798-0.84775-0.98804-1.5957-0.47826-2.5527 0.72866-1.3682 2.3447-1.6879 3.588-0.70979 0.55896 0.43956 0.71614 0.80013 0.71614 1.643 0 2.2424-2.2504 3.1952-3.8259 1.6195zm573.22-0.89c-3.4598-2.3312-1.8184-7.6906 2.3363-7.6278 3.7656 0.0567 5.4384 4.4716 2.7 7.1255-0.81407 0.78917-1.1824 0.94035-2.5192 1.0337-1.307 0.0907-1.7229 0.003-2.517-0.53141zm-124.63-1.1482c-3.5051-1.5269-3.218-6.7132 0.43226-7.8066 3.8871-1.1648 7.0067 3.498 4.4073 6.587-1.2527 1.4888-3.1333 1.9627-4.8395 1.2196zm-619.79-6.0026c-1.2383-1.3179-0.54425-3.4938 1.2201-3.8249 1.1398-0.21544 2.1989 0.36661 2.6019 1.4268 0.85693 2.2537-2.172 4.1544-3.822 2.3981zm345.57-0.64366c-1.1104-0.68598-1.639-1.3493-2.0192-2.5342-0.95392-2.9726 2.0266-5.9535 5.12-5.1205 1.1683 0.3137 2.6266 1.7598 2.9082 2.8819 0.25927 1.0329-0.0582 2.829-0.64056 3.6242-1.1469 1.5658-3.7805 2.1294-5.3684 1.1486zm-88.244-3.2598c-1.6871-0.8485-1.6048-3.2338 0.1406-4.0702 1.5433-0.73965 3.171 0.32882 3.171 2.081 0 1.8002-1.6802 2.8093-3.3115 1.9892zm365.6-0.10582c-1.4766-0.74835-2.2154-1.9495-2.2154-3.6011 0-4.1439 5.2455-5.7411 7.5873-2.3104 0.76203 1.1165 0.81271 3.0217 0.11565 4.3529-0.54338 1.0382-2.4114 2.1702-3.5811 2.1702-0.38506 0-1.2431-0.2759-1.9066-0.61152zm-438.09-1.06c-1.4767-1.0133-2.032-1.954-2.032-3.4416 0-1.6067 0.72624-2.9503 1.9953-3.6915 3.5697-2.0848 7.6707 1.8323 5.7867 5.5268-0.68583 1.3451-1.7168 1.9926-3.3856 2.1267-1.1814 0.0945-1.6035 0.003-2.3644-0.52045zm156.49-3.275c-0.54115-0.13984-1.3894-0.67011-1.8849-1.1811-0.76793-0.79257-0.91582-1.1607-1.0014-2.4956-0.079-1.228 0.0189-1.7564 0.45555-2.4514 1.9599-3.1219 6.771-2.3853 7.5671 1.1592 0.70552 3.1408-2.0101 5.7679-5.1363 4.9689zm-139.87-1.76c-0.45955-0.1852-1.1494-1.5481-1.1494-2.2715 0-0.31749 0.37266-0.95056 0.82798-1.406 0.71584-0.71584 0.96431-0.80617 1.8345-0.66671 1.2743 0.2041 1.9578 1.0288 1.9578 2.3622 0 0.7971-0.16592 1.1679-0.71614 1.6006-0.66977 0.52686-1.9521 0.7045-2.7548 0.38135zm165.02-1.2764c-3.1643-1.4347-3.179-6.0949-0.0227-7.5273 1.4903-0.67692 2.2974-0.65688 3.7124 0.0907 3.6337 1.9215 2.5018 7.4022-1.594 7.7189-0.70662 0.0529-1.6231-0.068-2.0947-0.28347zm185.3-0.0794c-3.2892-1.621-2.7729-6.5408 0.80629-7.6838 2.9628-0.9464 6.0537 2.1158 5.157 5.1088-0.34355 1.1467-1.449 2.4098-2.4391 2.787-0.96771 0.37039-2.537 0.2759-3.5242-0.21166zm-116.81-2.637c-3.1428-1.4249-3.1576-6.1043-0.0227-7.5273 1.4904-0.67691 2.2974-0.65688 3.7124 0.0907 3.6494 1.9298 2.5195 7.4011-1.5941 7.7189-0.70662 0.0529-1.6231-0.068-2.0946-0.28347zm-190.91-0.63c-2.0161-0.74155-2.0165-3.6839 0-4.3869 1.2328-0.42973 2.5144 0.21543 3.0108 1.5118 0.62714 1.6396-1.3179 3.4972-3.0102 2.8751zm364.04-1.29c-1.3337-1.3334-0.44175-3.953 1.3462-3.953 1.7175 0 2.8336 1.3398 2.4752 2.9715-0.36699 1.6713-2.5667 2.2364-3.8214 0.98155zm-548.14-1.2446c-1.5992-0.47887-2.8862-2.2379-2.8862-3.9447 0-2.109 1.4845-3.8506 3.5142-4.1227 4.7346-0.63497 6.6938 5.8609 2.3611 7.8285-1.2166 0.55257-1.7892 0.5983-2.9892 0.23811zm281.26-4.3472c-0.45218-0.13606-1.2393-0.67804-1.749-1.2038-0.79597-0.82129-0.94107-1.1777-1.0274-2.5221-0.079-1.2284 0.0189-1.7567 0.45555-2.4518 2.1804-3.473 7.6196-2.0168 7.6758 2.0553 0.0393 2.843-2.6723 4.9304-5.3549 4.1223zm-106.15-0.88063c-3.3607-2.245-1.8311-7.5368 2.1785-7.5368 1.7068 0 2.9984 0.74948 3.7538 2.1778 0.74589 1.4105 0.76807 2.2224 0.10091 3.6918-0.9964 2.194-4.0015 3.0244-6.0331 1.6672zm-109.26-1.36c-3.3358-2.2284-1.8334-7.5364 2.1332-7.5364 2.5297 0 4.2501 1.6501 4.2501 4.0766 0 1.5742-0.85334 3.0391-2.1203 3.6401-1.3445 0.63836-3.1525 0.56164-4.263-0.18142zm198.7-1.06c-3.4598-2.3316-1.8183-7.691 2.3363-7.6278 2.3408 0.0378 4.0061 1.7564 4.0148 4.1492 0.008 2.3278-1.4623 3.8445-3.8927 4.0142-1.2427 0.0869-1.6741 0-2.4584-0.53556zm286.57 0.2041c-2.4341-1.0594-1.0856-4.9402 1.5179-4.3684 2.26 0.49663 2.4377 3.6934 0.24794 4.4568-0.47532 0.1663-0.87651 0.2948-0.89159 0.29102-0.0151 0-0.40842-0.17764-0.87417-0.37908zm52.202-0.27591c-1.5902-1.59 0.004-4.3892 2.1883-3.8411 2.6498 0.6652 2.185 4.5082-0.5452 4.5082-0.67382 0-1.1825-0.20788-1.6431-0.66709zm85.081 0.13607c-0.88354-0.36662-1.9678-1.7038-2.2592-2.7832-0.83074-3.0777 1.975-5.8927 5.045-5.0615 4.617 1.2499 3.7474 8.1506-1.0192 8.0874-0.67264 0-1.4676-0.11716-1.7666-0.24189zm-530.54-0.93695c-1.1222-0.48869-2.2359-1.8709-2.4569-3.0489-0.72646-3.8725 3.8567-6.4713 6.8214-3.8684 1.758 1.5439 1.9171 4.0414 0.36926 5.8042-1.207 1.3746-3.1076 1.8217-4.7339 1.1131zm-200.03-1.9155c-1.0998-1.0998-0.88059-2.8728 0.43944-3.5554 1.1497-0.59452 1.8352-0.48755 2.7529 0.43011 0.7158 0.71585 0.80614 0.96454 0.66682 1.8346-0.3069 1.917-2.4997 2.6502-3.8591 1.2907zm238.02-0.18142c-2.969-1.4699-2.9211-5.8511 0.0797-7.3036 1.2592-0.60964 2.1839-0.68069 3.3117-0.25323 2.7617 1.0435 3.6054 4.8484 1.5168 6.841-1.47 1.4026-3.0559 1.6343-4.9084 0.71735zm-242.9-2.46c-1.3262-0.76082-1.6203-2.355-0.65971-3.5762 0.43963-0.55899 0.80028-0.71584 1.643-0.71584 2.2425 0 3.1951 2.2503 1.6196 3.8256-0.83418 0.83414-1.693 0.98797-2.6029 0.4664zm598.23-1.8554c-1.5919-0.4766-2.8862-2.2375-2.8862-3.9269 0-2.1683 1.4374-3.8619 3.5142-4.1405 4.7346-0.63497 6.6938 5.8609 2.3611 7.8282-1.2166 0.55257-1.7892 0.5983-2.9891 0.23811zm-516.42-1.3965c-2.7002-0.96983-3.6768-4.3098-1.93-6.5998 0.84714-1.1108 2.2418-1.6192 3.9225-1.4294 1.6185 0.18142 3.147 1.7031 3.437 3.4193 0.49327 2.9197-2.6665 5.6028-5.4295 4.6099zm-47.071-0.4936c-1.4756-0.60889-1.8394-2.8471-0.63938-3.933 0.78538-0.71093 2.3094-0.6531 3.1308 0.11716 1.7906 1.6823-0.21543 4.7535-2.4915 3.8143zm621.29-1.307c-0.80885-0.12094-1.7041-1.3043-1.7041-2.2507 0-0.41991 0.28989-1.1006 0.64422-1.5126 1.8996-2.2084 5.2413 0.66746 3.4386 2.9594-0.55366 0.70375-1.3211 0.96302-2.3788 0.8039zm-462.8-3.71c-1.4671-1.4668-0.34658-3.953 1.782-3.953 0.89582 0 2.1712 1.4317 2.1712 2.4374 0 1.1924-1.0481 2.1827-2.3102 2.1827-0.67381 0-1.1825-0.20788-1.6431-0.66709zm471.49-0.1474c-3.5119-2.1415-2.0269-7.6071 2.0678-7.6105 2.5006-0.003 4.2223 1.6596 4.2223 4.0758 0 1.5738-0.85334 3.0387-2.1203 3.6401-1.2647 0.60019-3.0881 0.55408-4.1698-0.10583zm-223.63-2.01c-2.641-1.1497-3.1952-4.8234-1.0351-6.861 2.5949-2.4472 6.9015-0.5537 6.9015 3.0346 0 3.0047-3.1041 5.029-5.8664 3.8264zm-134.88-2.0829c-2.0692-0.43767-3.3989-2.239-3.2172-4.3586 0.35377-4.125 5.8562-5.2543 7.7362-1.5878 0.74136 1.4457 0.75905 2.2208 0.0847 3.7062-0.80111 1.7643-2.6347 2.6566-4.6038 2.2401zm-278.62-0.93c-1.2383-1.3183-0.54425-3.4942 1.2201-3.8253 1.1398-0.21543 2.1989 0.36661 2.6019 1.4268 0.85689 2.2541-2.172 4.1545-3.822 2.3985zm366.23 0.09c-1.3296-0.78992-1.6197-2.3667-0.65971-3.5872 0.43272-0.54992 0.80368-0.71584 1.6006-0.71584 1.3226 0 2.158 0.68145 2.3566 1.9226 0.12359 0.77254 0.0227 1.121-0.48386 1.6993-0.73651 0.83754-2.0251 1.1497-2.8137 0.68107zm-201.68-2.75c-1.5883-1.3659-0.59724-4.001 1.5049-4.001 2.1066 0 3.1157 2.6154 1.534 3.9761-0.94571 0.81335-2.1111 0.82318-3.0389 0.0378zm265.52-0.83905c-3.1642-1.4347-3.179-6.0949-0.0227-7.5273 1.4903-0.67653 2.2974-0.65688 3.7124 0.0907 3.6494 1.9298 2.5195 7.4011-1.5941 7.7189-0.70658 0.0529-1.623-0.068-2.0946-0.28346zm-249.62-1.6747c-0.92648-0.98608-0.88056-2.4423 0.10356-3.2889 2.2403-1.9272 5.1942 1.1361 3.1717 3.2889-0.46167 0.49134-0.92768 0.68712-1.6377 0.68712s-1.176-0.19654-1.6377-0.68712zm-165.23-5.1c-0.88932-0.45846-1.4429-1.6433-1.2271-2.626 0.57864-2.6347 4.4885-2.1774 4.4885 0.52497 0 1.6743-1.8177 2.8452-3.2614 2.101zm98.55-3.5324c-2.8619-1.6407-2.7498-5.7452 0.19729-7.2283 1.7008-0.85569 3.3165-0.64895 4.6338 0.59338 3.6003 3.3955-0.5469 9.0909-4.8311 6.635zm14.68-3.4617c-1.8278-0.56731-3.0102-2.4185-2.8185-4.413 0.15005-1.5617 0.82742-2.6014 2.1259-3.2636 3.9449-2.0115 7.8354 2.6033 5.2707 6.2521-0.83913 1.194-3.0771 1.8901-4.5781 1.4245zm-111.97-0.38c-2.027-0.72265-3.2268-2.5092-3.2093-4.7781 0.02268-3.0954 2.5945-5.2305 5.7829-4.8026 2.9415 0.39459 4.7804 3.4182 3.8941 6.4025-0.46757 1.5746-1.7576 2.8558-3.3091 3.2867-1.3215 0.36662-1.8793 0.34772-3.1587-0.1096zm578.56 0c-2.4341-1.0594-1.0856-4.9398 1.5179-4.368 2.2599 0.49625 2.4377 3.6934 0.24794 4.4568-0.47528 0.1663-0.87647 0.2948-0.89155 0.29102-0.0151 0-0.40842-0.17764-0.87417-0.37946zm-368.56-0.42709c-0.77118-0.30992-1.1729-1.0885-1.1729-2.2707 0-2.1853 3.2126-2.9227 4.2227-0.96945 0.58976 1.1403 0.48854 1.8338-0.39685 2.7194-0.80701 0.80693-1.5706 0.95698-2.653 0.52082zm437.49-0.77329c-1.3735-0.73663-1.9801-1.7046-2.1043-3.3585-0.14626-1.9487 0.50589-3.1351 2.1895-3.9825 4.052-2.039 7.8513 2.7572 5.0276 6.347-1.1534 1.4661-3.4132 1.9056-5.1129 0.99401zm-658.7-1.2291c-0.46394-0.21165-1.1366-0.79295-1.4948-1.2952-0.87863-1.2321-0.91869-3.6401-0.07937-4.7664 1.3104-1.7579 3.7648-2.3221 5.5764-1.282 0.99504 0.57146 2.1411 2.5047 2.1411 3.6121 0 0.96832-0.97576 2.7953-1.8195 3.4072-0.91971 0.6667-3.192 0.83716-4.3238 0.32503zm384.73-8c-1.0616-0.55559-2.17-2.4189-2.17-3.6472 0-1.9087 1.304-3.5089 3.2926-4.0403 1.1533-0.30992 1.36-0.28346 2.5678 0.32126 1.582 0.79257 2.2826 1.6894 2.4822 3.1771 0.43808 3.2663-3.2076 5.7396-6.1726 4.1877zm-386.89-1.7892c-3.3625-1.4646-3.2113-6.4517 0.23509-7.7537 2.6083-0.9857 5.6218 1.1176 5.6218 3.9235 0 2.9121-3.1839 4.9946-5.8568 3.8302zm-11.286-1.4993c-1.5326-1.5326-0.62404-3.8256 1.5157-3.8256 2.4482 0 3.2068 3.1484 1.037 4.3041-0.95709 0.50986-1.7048 0.3704-2.5528-0.47848zm139.64-3.8857c-3.0824-0.80919-4.0337-4.6545-1.7229-6.9649 0.83365-0.83376 1.1575-0.96907 2.5325-1.0575 1.8401-0.11717 3.0067 0.4509 3.8882 1.8969 1.2994 2.1309 0.12094 5.4021-2.1757 6.0401-1.2542 0.34771-1.4906 0.35527-2.522 0.0869zm40.152-7.9453c-0.70333-0.70337-0.88195-1.9567-0.40569-2.8467 0.35565-0.66482 1.7533-1.2053 2.5795-0.99817 2.6329 0.66104 2.1799 4.512-0.53076 4.512-0.67381 0-1.1825-0.20788-1.6431-0.66709zm68.932-0.0794c-0.32013-0.26079-0.65446-0.92863-0.74309-1.4823-0.13947-0.87042-0.0491-1.1187 0.66682-1.8346 0.91771-0.91767 1.6032-1.025 2.7528-0.43049 0.87511 0.45279 1.1066 0.90444 1.1066 2.1592 0 1.762-2.3587 2.7523-3.7832 1.5882zm101.73-4.8053c-0.46398-0.20031-1.1367-0.77783-1.4948-1.2801-0.87863-1.2321-0.91869-3.6401-0.0794-4.7664 1.9388-2.6007 5.6792-2.363 7.1059 0.45166 0.77144 1.522 0.77001 2.3369-0.008 3.8056-1.0332 1.954-3.3922 2.7179-5.5251 1.7892zm-262.78-0.27c-4.8471-1.7208-2.9021-8.7625 2.1921-7.9359 2.8259 0.45846 4.3196 4.1374 2.6108 6.4305-1.1075 1.4861-3.099 2.1101-4.8029 1.5054zm343.68-2.94c-2.1661-1.0957-1.3932-4.269 1.0398-4.269 1.7418 0 2.767 1.5371 2.0962 3.1427-0.55548 1.3293-1.8296 1.787-3.136 1.1263zm18.917-0.80806c-2.8209-1.6173-2.7444-5.6697 0.13606-7.2125 2.2661-1.2132 4.8929-0.19653 5.8308 2.2613 0.39198 1.0261 0.41923 1.4135 0.16025 2.2779-0.86381 2.883-3.645 4.0962-6.1273 2.6733zm88.533-0.768c-1.7854-0.51742-3.1097-2.9099-2.7118-4.8994 0.50468-2.5236 3.5801-4.0093 5.8588-2.8312 3.0993 1.6029 3.1161 5.8594 0.0302 7.4162-1.296 0.65348-1.8253 0.70564-3.1762 0.3137zm78.579-0.25323c-0.45218-0.13606-1.2393-0.67805-1.749-1.2038-0.792-0.81714-0.9428-1.1841-1.0365-2.5221-0.0915-1.307-0.004-1.7231 0.53144-2.5172 0.77866-1.1554 2.1769-1.9015 3.5653-1.9018 3.2477-0.002 5.1704 3.6291 3.4273 6.4717-0.83422 1.3606-3.1097 2.1638-4.7386 1.6732zm-50.286-2.2896c-1.4657-1.4657-0.43177-3.9534 1.6431-3.9534 1.3254 0 2.3102 0.98495 2.3102 2.31 0 1.3255-0.98479 2.3104-2.3102 2.3104-0.67381 0-1.1825-0.20788-1.6431-0.66709zm80.421 0.0378c-1.5508-1.3338-0.53136-3.9761 1.534-3.9761 0.43407 0 1.1199 0.28725 1.534 0.64441 1.5508 1.3338 0.53137 3.9761-1.534 3.9761-0.43408 0-1.1199-0.28725-1.534-0.64441zm-378.65-4.3332c-0.58114-0.61871-0.76974-1.8501-0.42214-2.756 0.20636-0.53745 1.4971-1.2352 2.2846-1.2352 0.31786 0 0.95055 0.37417 1.406 0.82771 0.7158 0.71585 0.80613 0.96454 0.66682 1.8346-0.0884 0.5537-0.42301 1.2208-0.74309 1.4823-0.85225 0.69656-2.4666 0.6187-3.1922-0.15496zm-60.015-2.1895c-1.5508-1.3338-0.53137-3.9761 1.534-3.9761 0.43408 0 1.1199 0.28725 1.534 0.64404 1.5508 1.3342 0.53136 3.9761-1.534 3.9761-0.43408 0-1.1199-0.28725-1.534-0.64403zm-189.58-0.22c-1.992-1.1546-2.6767-4.1144-1.3598-5.8779 0.98729-1.3224 1.8898-1.7877 3.4684-1.7877 3.174 0 5.0834 3.0384 3.7024 5.8912-1.0637 2.1974-3.695 3.0009-5.8109 1.7745zm680.91-0.415c-1.525-0.77782-2.0577-1.7465-2.0577-3.7417 0-1.6074 0.0677-1.8009 0.94171-2.7031 2.332-2.406 6.1755-1.5148 7.0448 1.6339 0.96132 3.4817-2.7036 6.4554-5.9288 4.811zm-575.65-2.75c-2.9333-1.5587-2.9252-5.8035 0.0151-7.3107 1.4491-0.74305 2.2206-0.75893 3.7217-0.0794 1.507 0.6841 2.2455 1.9026 2.2468 3.707 0.001 2.3286-1.806 4.1847-4.0759 4.1847-0.52785 0-1.3859-0.22678-1.9067-0.50306zm461.68 0.17764c-2.4792-0.67653-4.1082-3.4647-3.4604-5.9221 0.65348-2.479 2.3638-3.8098 4.8964-3.8098 3.783 0 6.029 3.7587 4.3358 7.2559-0.96197 1.9873-3.5288 3.0882-5.7719 2.476zm-72.896-3.8763c-1.5836-1.5836 0.003-4.3899 2.1738-3.8449 2.6329 0.66104 2.1799 4.512-0.53076 4.512-0.67381 0-1.1825-0.20787-1.6431-0.66708zm-276.79-0.68485c-1.172-1.172-0.86385-3.0512 0.61678-3.761 2.2786-1.0923 4.3674 1.7771 2.6357 3.6204-0.81094 0.86324-2.4586 0.9343-3.2525 0.13984zm187.52-0.69317c-0.4495-0.47849-0.63621-0.98268-0.61686-1.6653 0.034-1.2038 0.73943-1.962 2.0188-2.1694 2.1119-0.34393 3.3724 2.2379 1.8728 3.834-0.88751 0.9445-2.3876 0.94488-3.2747 0.00075zm115.25-3.17c-1.4128-0.7389-2.1944-2.0277-2.1944-3.6189 0-3.3124 3.824-5.3189 6.5021-3.4118 3.0874 2.1982 1.8277 7.146-1.9187 7.536-0.88626 0.0907-1.4902-0.0378-2.389-0.50532zm107.64-2.7209c-3.5257-1.8883-2.6769-6.9778 1.2886-7.7269 2.0951-0.39572 4.0995 0.96718 4.6925 3.191 0.30728 1.1528 0.2812 1.3606-0.32352 2.5678-0.81015 1.6173-1.7311 2.3142-3.2769 2.4801-0.89893 0.0983-1.4754-0.0378-2.3805-0.51212zm-121.24-3.0161c-2.1662-1.0957-1.3933-4.2686 1.0398-4.2686 1.056 0 1.9375 0.6463 2.3056 1.691 0.26911 0.76384-0.3583 2.101-1.187 2.5296-0.93789 0.48529-1.2788 0.49285-2.1583 0.0491zm-355.14-4.95c-1.2858-0.90066-0.99734-3.3362 0.46692-3.9428 1.6723-0.69278 3.2561 0.33638 3.2561 2.1135 0 1.8108-2.2036 2.8936-3.723 1.8293zm265.75-0.15496c-1.5242-0.62325-1.899-2.6638-0.69668-3.7935 1.5351-1.4419 3.7852-0.46829 3.7852 1.6377 0 1.7201-1.5345 2.7912-3.0885 2.1558zm185.55-1.6229c-3.2856-1.7356-3.5963-6.5333-0.5528-8.5383 2.158-1.4215 4.8949-1.0806 6.5613 0.81751 2.1912 2.4956 1.4648 6.3107-1.4723 7.7325-1.4103 0.68259-3.2301 0.67805-4.5362 0zm-10.745-4.2603c-0.33335-0.0643-0.85315-0.42784-1.1551-0.81184-1.206-1.533-0.17008-3.7228 1.7612-3.7228 1.9638 0 3.0083 2.3002 1.6987 3.7406-0.66505 0.73171-1.3605 0.97096-2.3048 0.79407zm-546.53-5.9029c-1.7956-0.78161-1.6893-3.5426 0.16138-4.1877 2.7351-0.95357 4.4505 2.8554 1.8838 4.1824-0.91559 0.47357-0.96847 0.47395-2.0451 0zm375.37 0.0605c-1.3262-0.76082-1.6203-2.355-0.65975-3.5762 0.43967-0.55899 0.80028-0.71584 1.6431-0.71584 2.2425 0 3.1951 2.2503 1.6195 3.8256-0.83418 0.83414-1.693 0.98797-2.6028 0.46639zm-91.605-3.8593c-2.7644-1.2038-3.3512-4.9194-1.0905-6.9044 3.7976-3.3343 9.1786 1.8244 5.93 5.6852-1.2527 1.4888-3.1333 1.9627-4.8395 1.2193zm-154.95-2.34c-1.3548-0.54577-1.6338-2.8577-0.45672-3.7833 1.7566-1.3818 4.2321 0.0416 3.7656 2.1672-0.32278 1.4687-1.8377 2.2088-3.3088 1.6161zm279.3-0.223c-1.3149-0.68825-2.2453-2.5153-2.0816-4.0876 0.39023-3.7463 5.3379-5.006 7.5363-1.9189 1.9069 2.6782-0.0998 6.5023-3.4121 6.5023-0.60261 0-1.5218-0.22299-2.0426-0.49588zm-245.05-0.85493c-1.4533-0.60094-1.8779-2.4767-0.83508-3.6892 1.3211-1.536 3.9995-0.52687 3.9995 1.5069 0 1.5103-1.7954 2.7485-3.1644 2.1823zm139.66-0.18897c-0.45956-0.1852-1.1494-1.5481-1.1494-2.2715 0-0.31748 0.37266-0.95055 0.82795-1.406 0.71584-0.71584 0.96431-0.80618 1.8345-0.66671 1.2396 0.20031 1.9578 1.0269 1.9578 2.2586 0 1.6679-1.8084 2.7545-3.471 2.0856zm226.06-1.6475c-2.5166-0.87798-1.958-4.5301 0.69294-4.5301 2.6617 0 3.0088 3.9904 0.3942 4.5316-0.3738 0.0794-0.8629 0.0756-1.0871-0.002zm-547.56-5.6474c-2.0008-0.84132-1.6747-3.877 0.46688-4.3476 0.87311-0.19275 2.2782 0.41726 2.5407 1.101 0.82144 2.1407-0.98918 4.0951-3.0076 3.2466zm344.54-0.33638c-2.5564-1.2892-0.95293-5.0411 1.7704-4.1424 1.0942 0.36284 1.485 0.9498 1.485 2.2379 0 0.86967-0.79128 2.1075-1.3473 2.1075-0.13153 0-0.40184 0.0605-0.60091 0.13607-0.19918 0.0756-0.78731-0.0756-1.3072-0.34016zm28.615-10.671c-0.96408-0.38816-1.53-1.485-1.3265-2.5705 0.48378-2.5788 4.5041-2.2878 4.5041 0.32504 0 1.2159-0.23811 1.6721-1.1066 2.1211-0.8651 0.4475-1.2147 0.46828-2.071 0.12472zm153.31-0.65915c-1.867-0.8126-1.683-3.5747 0.2812-4.2232 2.794-0.92182 4.3281 3.1053 1.6146 4.2391-1.0523 0.43956-0.8459 0.44107-1.8958 0zm-326.97-0.2041c-0.78471-0.37946-1.2701-1.6123-1.0426-2.6483 0.56462-2.5708 4.4884-1.9926 4.4884 0.66104 0 1.8024-1.7458 2.8093-3.4459 1.9873zm246.27-2.2337c-1.0983-0.47811-2.2345-1.8637-2.4439-2.9794-0.74732-3.9836 4.2493-6.666 7.0156-3.7663 3.2019 3.3566-0.34318 8.5878-4.5717 6.7457zm-297.59-0.91918c-1.3866-0.28346-2.1656-1.9627-1.5978-3.4424 0.45812-1.194 2.8044-1.4914 3.7227-0.47244 1.4943 1.6584 0.0302 4.3567-2.1249 3.9148zm211.16-2.6268c-1.5902-1.5904 0.004-4.3895 2.1883-3.8411 2.6499 0.66482 2.1851 4.5082-0.54519 4.5082-0.67382 0-1.1825-0.20788-1.6431-0.66709zm171.89-3.4862c-1.2468-0.95735-1.3576-2.389-0.26911-3.4775 1.5326-1.5326 3.8259-0.624 3.8259 1.5156 0 1.8025-2.1905 3.0108-3.5568 1.962zm-520.88-1.6645c-0.92765-0.41046-1.1958-0.88214-1.1958-2.1041 0-1.1471 0.40173-1.7598 1.3764-2.0995 1.7703-0.6172 3.5018 0.89045 3.1039 2.7024-0.31975 1.4559-1.8286 2.1456-3.2845 1.5012zm447.64-6.8077c-1.4671-1.4672-0.34658-3.9534 1.782-3.9534 0.89583 0 2.1712 1.4317 2.1712 2.4374 0 1.1924-1.048 2.1831-2.3102 2.1831-0.67382 0-1.1825-0.20787-1.6431-0.66709zm-74.892-1.5806c-3.3358-2.2284-1.8334-7.5368 2.1332-7.5368 2.5297 0 4.2501 1.6501 4.2501 4.077 0 1.5738-0.85335 3.0387-2.1203 3.6401-1.3445 0.63798-3.1525 0.56126-4.263-0.18142zm-371.9-0.17c-1.2025-0.74268-1.7067-1.4124-1.9753-2.6238-0.9188-4.1446 4.0701-6.8273 7.0255-3.7784 0.76033 0.78463 0.90894 1.1565 0.99443 2.4884 0.11754 1.8285-0.45487 2.9976-1.8974 3.8774-1.1355 0.69203-3.058 0.70904-4.1472 0.0378zm529.13-2.476c-1.4522-0.60057-1.878-2.4767-0.83679-3.6873 1.3814-1.6059 4.0012-0.55257 4.0012 1.6086 0 1.4906-1.7719 2.6547-3.1644 2.0787zm-436.57-1.31c-0.91771-0.91767-1.0249-1.6029-0.43038-2.7526 0.65212-1.2612 2.2746-1.5126 3.5066-0.5435 0.55018 0.43276 0.71611 0.80391 0.71611 1.6006 0 1.3338-0.68353 2.1585-1.9578 2.3626-0.87027 0.13985-1.1187 0.0491-1.8345-0.66708zm262.11 0.10582c-0.45585-0.20031-1.1438-0.73549-1.5289-1.1928-2.4724-2.9386 0.20523-7.4419 4.0016-6.7298 1.1647 0.21921 2.5323 1.3568 3.0134 2.5081 1.4314 3.4258-2.0849 6.8961-5.4861 5.4146zm-251.26-13.89c-0.90229-0.96038-0.84181-2.4771 0.13228-3.315 2.2162-1.9064 5.1451 1.1826 3.1425 3.3143-0.88751 0.94488-2.3876 0.94526-3.2747 0.00076zm331.16-1.0401c-3.3634-1.525-3.2139-6.4656 0.23509-7.7688 2.7933-1.0552 5.8798 1.3107 5.5482 4.2531-0.31635 2.8078-3.3189 4.6329-5.7832 3.5157zm-263.28-14.9c-1.9943-1.1872-2.6741-4.1337-1.3598-5.8942 0.98729-1.3221 1.8898-1.7873 3.4684-1.7873 2.4635 0 4.0768 1.6055 4.0768 4.0573 0 2.301-1.5249 3.9334-3.8527 4.1242-1.0063 0.0831-1.5488-0.0378-2.3326-0.50003zm-53.076-2.253c-1.0998-1.0998-0.88059-2.8728 0.43948-3.5554 1.1497-0.59452 1.8351-0.48756 2.7528 0.43011 0.7158 0.71584 0.80614 0.96453 0.66682 1.8346-0.3069 1.917-2.4997 2.6502-3.8591 1.2907zm122.32-4.6515c-1.8915-0.98192-2.9081-2.5901-2.9081-4.6016 0-2.1222 1.1132-3.7746 3.1032-4.6057 4.1931-1.7518 8.3818 2.8369 6.3132 6.9162-0.47074 0.92787-1.7283 2.0791-2.6531 2.4287-1.1035 0.41688-2.9113 0.3515-3.8552-0.13606zm137.29-7.203c-0.55015-0.43276-0.71611-0.80391-0.71611-1.6006 0-1.3338 0.68353-2.1585 1.9578-2.3626 0.87024-0.13984 1.1187-0.04913 1.8346 0.66709 0.9177 0.91767 1.0248 1.6029 0.43033 2.7526-0.65208 1.2612-2.2746 1.5126-3.5066 0.5435zm-59.286-0.56617c-1.3383-0.73172-1.6356-2.3497-0.65972-3.5902 0.43272-0.5503 0.80368-0.71622 1.6006-0.71622 1.3336 0 2.1583 0.68372 2.3623 1.9578 0.13947 0.87042 0.0491 1.1187-0.66682 1.8346-0.8606 0.8606-1.7027 1.025-2.6364 0.51402zm202.34-4.0872c-2.2391-1.1478-3.07-4.0441-1.6936-5.9032 1.0241-1.3829 2.2381-1.985 3.7568-1.8633 2.5229 0.20032 4.1146 2.0636 3.841 4.4912-0.33713 2.99-3.2781 4.6216-5.9043 3.2753zm-231.97-2.171c-0.88297-1.0496-0.77741-2.208 0.28649-3.1442 1.5264-1.3432 3.6542-0.2948 3.6542 1.8025 0 2.1464-2.5368 3.01-3.9408 1.3417zm-207.36-1.071c-1.4093-0.80617-1.6726-2.5364-0.55593-3.6529 2.0239-2.0239 5.288 0.90066 3.4776 3.1158-0.56081 0.68636-2.1503 0.97814-2.9217 0.53707zm128.37-1.309c-0.93747-0.73739-1.1997-1.9136-0.6596-2.9582 0.46957-0.90784 0.91226-1.1399 2.1764-1.1399 1.7621 0 2.7521 2.3588 1.5879 3.7833-0.70979 0.86816-2.2078 1.0201-3.1047 0.3137zm231.65-13.696c-1.1978-1.2752-0.55404-3.4458 1.1487-3.8733 1.4667-0.36661 3.1304 1.2956 2.7623 2.7625-0.43461 1.7318-2.7184 2.3803-3.911 1.1108zm-25.14-2.4979c-1.5242-0.38664-2.5158-1.228-3.2029-2.7167-1.2774-2.7677 0.17726-5.9252 3.1342-6.8035 4.0764-1.2106 7.661 2.9318 5.8972 6.8149-0.44228 0.97398-1.9387 2.5599-2.4316 2.5773-0.10054 0.0034-0.61678 0.10583-1.1469 0.23055-0.604 0.13984-1.4441 0.10205-2.25-0.10205zm-286.73-1.071c-2.0352-0.73172-3.0985-2.4355-2.8192-4.5177 0.52656-3.9262 5.8722-4.8503 7.7303-1.3368 0.77673 1.4691 0.77821 2.284 0.008 3.806-0.96382 1.9015-2.9851 2.7436-4.9179 2.0485zm79.591-3.9972c-2.1075-1.1528-1.3424-4.3068 1.0447-4.3068 1.2315 0 2.0601 0.71849 2.2585 1.9582 0.13946 0.87005 0.0491 1.1187-0.66682 1.8342-0.86056 0.8606-1.7027 1.025-2.6364 0.51439zm56.395-4.0876c-2.2391-1.1475-3.07-4.0441-1.6936-5.9029 1.0241-1.3833 2.2381-1.9854 3.7568-1.8637 2.5229 0.20409 4.1147 2.0636 3.841 4.4916-0.33713 2.99-3.2781 4.6212-5.9043 3.275zm-137.01-2.742c-1.7951-1.3784-0.82549-4.272 1.4315-4.272 1.9392 0 2.9322 2.8588 1.4091 4.0569-0.79162 0.62287-2.1733 0.72718-2.8406 0.21543zm332.66-3.2614c-0.58499-0.44938-1.0636-1.3946-1.0636-2.1007 0-0.89613 1.4318-2.1713 2.4375-2.1713 1.9941 0 3.0193 2.8358 1.4667 4.0569-0.79162 0.62287-2.1733 0.72718-2.8406 0.21543zm-290.92-3.041c-2.9445-1.0658-3.6857-4.859-1.3501-6.9097 1.1298-0.99213 1.9427-1.2355 3.4494-1.0333 1.3738 0.1852 2.3726 0.88781 2.9963 2.1109 1.725 3.3831-1.5394 7.1195-5.0955 5.8322zm214.97-1.6135c-2.7644-1.2038-3.3512-4.9194-1.0905-6.9044 3.7976-3.3343 9.1786 1.8244 5.93 5.6852-1.2527 1.4888-3.1333 1.9627-4.8395 1.2193zm-192.45-2.437c-1.5508-1.3342-0.53137-3.9764 1.534-3.9764 0.43408 0 1.1198 0.28724 1.534 0.64441 1.5508 1.3338 0.53136 3.9761-1.534 3.9761-0.43411 0-1.1199-0.28724-1.534-0.64403zm231.98-3.1487c-1.9205-0.58205-2.9661-2.0477-2.9661-4.1579 0-1.4823 0.8425-2.8535 2.1797-3.5475 1.1945-0.61946 3.272-0.48529 4.2954 0.2759 2.5497 1.9003 2.2126 5.89-0.60579 7.1701-1.1923 0.54123-1.7913 0.59452-2.9032 0.25701zm-67.363-1.4237c-2.2716-1.1796-3.0146-3.2546-1.9516-5.4501 1.4898-3.0777 5.752-3.185 7.3211-0.1852 1.9054 3.6438-1.7721 7.5031-5.3694 5.6349zm-34.125-3.7969c-1.8393-1.0148-2.7557-2.7428-2.4414-4.6035 0.54077-3.2009 4.7713-4.5437 6.9894-2.219 1.3888 1.4559 1.6514 3.2009 0.74808 4.9716-0.90073 1.7658-3.6861 2.739-5.2961 1.8508zm-65.912-2.6253c-1.9783-1.036-2.7379-4.1991-1.4384-5.9906 0.8081-1.1138 2.8186-2.0115 4.0064-1.7888 2.0611 0.38665 3.6859 2.188 3.6868 4.0876 0 1.254-1.0906 3.1007-2.1764 3.6831-1.195 0.64101-2.8638 0.64441-4.0785 0zm159.44-9.6726c-1.536-0.56844-2.579-1.7042-3.0486-3.3196-0.88414-3.0414 1.0895-5.989 4.2109-6.2888 1.7858-0.17008 3.0629 0.30614 4.2028 1.5659 2.0981 2.3221 1.4719 6.3704-1.1991 7.7518-1.1828 0.61153-2.9634 0.73587-4.1659 0.29102zm-111.27-5.232c-1.4287-0.70413-2.0977-1.8754-2.0977-3.6729 0-1.1441 0.14778-1.7409 0.57196-2.31 1.9389-2.6011 5.6792-2.3633 7.106 0.45165 0.77144 1.522 0.76997 2.3369-0.008 3.8056-1.0554 1.9956-3.4938 2.7507-5.5734 1.7257z"/></svg>
