<svg xmlns="http://www.w3.org/2000/svg" version="1.1" viewBox="0 0 48 16"><g transform="translate(-27.242 -142.92)"><g stroke-width=".66205" fill="#00496d"><g transform="matrix(.53285 0 0 -.53285 31.618 151.14)"><path d="m0 0c-0.681 0.362-1.563 0.513-2.271 0.634l-0.299 0.052c-0.745 0.12-1.448 0.233-1.973 0.469-0.573 0.257-0.84 0.622-0.84 1.149 0 1.351 1.476 1.635 2.714 1.635 0.84 0 1.669-0.178 2.397-0.516 0.028-0.012 0.046-0.042 0.046-0.074v-1.043c0-0.23 0.192-0.416 0.429-0.416 0.231 0 0.417 0.177 0.424 0.403l0.042 1.354c0.005 0.158-0.083 0.307-0.223 0.381-0.949 0.496-1.994 0.759-3.024 0.759l-0.091-0.001c-2.308 0-3.632-0.905-3.632-2.482 0-1.928 2.17-2.26 3.607-2.479 0.952-0.138 1.644-0.273 2.154-0.52 0.571-0.278 0.836-0.672 0.836-1.24 0-1.69-2.425-1.776-2.911-1.776-0.891 0-1.971 0.277-2.817 0.722-0.025 0.013-0.041 0.04-0.041 0.071v1.087c0 0.248-0.217 0.439-0.485 0.415-0.217-0.02-0.379-0.208-0.379-0.422v-1.414c0-0.154 0.086-0.295 0.226-0.368 1.159-0.608 2.054-0.937 3.46-0.937 0.476 0 1.398 0.05 2.226 0.39 1.054 0.432 1.594 1.177 1.603 2.212 0.016 0.885-0.369 1.525-1.178 1.955" fill="#00496d"/></g><g transform="matrix(.53285 0 0 -.53285 38.127 148.68)"><path d="m0 0h-2.965c-0.245 0-0.443-0.205-0.428-0.451 0.012-0.218 0.22-0.396 0.443-0.396h0.899c0.02 0 0.04-0.006 0.055-0.019 0.028-0.027 0.036-0.061 0.022-0.093l-1.913-4.606-0.813-2.06c-0.019-0.049-0.064-0.053-0.078-0.053-0.036 0-0.064 0.019-0.077 0.052l-0.825 2.013-2.03 4.653c-0.011 0.025-0.009 0.053 0.008 0.077 0.015 0.023 0.04 0.036 0.069 0.036h0.925c0.245 0 0.442 0.205 0.428 0.451-0.013 0.219-0.22 0.396-0.443 0.396h-3.055c-0.245 0-0.443-0.205-0.429-0.451 0.013-0.218 0.221-0.396 0.444-0.396h1.001c0.033 0 0.063-0.019 0.077-0.049l3.441-7.859c0.009-0.02 0.009-0.044 0-0.064l-1.2-2.727c-0.296-0.651-0.724-0.996-1.237-0.996-0.311 0-0.65 0.12-1.009 0.355-0.067 0.044-0.146 0.067-0.23 0.067-0.146 0-0.283-0.071-0.359-0.185l-0.027-0.039c-0.062-0.094-0.083-0.206-0.059-0.316 0.025-0.109 0.09-0.202 0.186-0.263 0.503-0.322 1.003-0.485 1.487-0.485 0.918 0 1.678 0.579 2.085 1.589l4.657 10.922c0.013 0.031 0.043 0.05 0.077 0.05h0.888c0.245 0 0.443 0.205 0.428 0.451-0.012 0.219-0.22 0.396-0.443 0.396" fill="#00496d"/></g><g transform="matrix(.53285 0 0 -.53285 42.095 151.14)"><path d="m0 0c-0.681 0.362-1.563 0.513-2.271 0.634l-0.299 0.052c-0.745 0.12-1.448 0.233-1.973 0.469-0.573 0.257-0.84 0.622-0.84 1.149 0 1.351 1.476 1.635 2.714 1.635 0.84 0 1.669-0.178 2.397-0.516 0.028-0.012 0.045-0.042 0.045-0.074v-1.043c0-0.247 0.224-0.445 0.485-0.413 0.198 0.025 0.363 0.218 0.369 0.413l0.042 1.341c0.004 0.158-0.083 0.307-0.223 0.381-0.949 0.496-1.994 0.759-3.024 0.759l-0.091-0.001c-2.308 0-3.632-0.905-3.632-2.482 0-1.928 2.17-2.26 3.607-2.479 0.952-0.138 1.644-0.273 2.154-0.52 0.57-0.278 0.836-0.672 0.836-1.24 0-1.69-2.425-1.776-2.911-1.776-0.891 0-1.971 0.277-2.817 0.722-0.025 0.013-0.041 0.04-0.041 0.071v1.087c0 0.248-0.217 0.439-0.485 0.415-0.217-0.02-0.379-0.208-0.379-0.422v-1.414c0-0.154 0.086-0.295 0.225-0.368 1.16-0.608 2.055-0.937 3.461-0.937 0.476 0 1.398 0.05 2.226 0.39 1.054 0.432 1.594 1.177 1.603 2.212 0.016 0.885-0.369 1.525-1.178 1.955" fill="#00496d"/></g><g transform="matrix(.53285 0 0 -.53285 46.36 152.93)"><path d="m0 0c-0.057 0-0.112-0.011-0.164-0.033-0.475-0.201-0.994-0.331-1.323-0.331-1.349 0-1.596 0.693-1.596 2.058v5.499c0.002 0.002 0.002 0.003 0.004 0.004h2.766c0.24 0 0.432 0.21 0.398 0.455-0.025 0.188-0.218 0.339-0.411 0.339h-2.753l-0.004 0.004v2.325c0 0.187-0.154 0.338-0.343 0.338-0.012 0-0.025 0-0.037-0.002l-0.191-0.018c-0.177-0.018-0.311-0.163-0.311-0.337v-2.306c-0.002-0.002-0.003-0.002-0.004-0.004h-1.54c-0.241 0-0.433-0.21-0.399-0.455 0.026-0.187 0.218-0.339 0.411-0.339h1.528l0.004-0.004v-5.499c0-0.62 0.048-1.406 0.427-1.982 0.394-0.6 1.076-0.896 2.086-0.905h0.001c0.465 0 1.071 0.146 1.625 0.39 0.081 0.036 0.153 0.095 0.198 0.171 0.076 0.129 0.077 0.279 0.008 0.409-0.072 0.136-0.221 0.223-0.38 0.223m-1.451-1.119z" fill="#00496d"/></g><g transform="matrix(.53285 0 0 -.53285 49.319 148.62)"><path d="m0 0c-2.658 0-4.587-1.957-4.587-4.654 0-3.149 2.387-4.583 4.605-4.583 1.516 0 2.978 0.597 3.817 1.559 0.077 0.089 0.113 0.206 0.1 0.321-0.014 0.118-0.076 0.22-0.18 0.295-0.07 0.051-0.155 0.078-0.246 0.078-0.125 0-0.242-0.051-0.321-0.14-0.67-0.757-1.944-1.267-3.17-1.267-2.539 0-3.593 1.889-3.723 3.504-0.002 0.052-0.009 0.212-0.009 0.268 0 0.049 0.009 0.2 0.009 0.201 0.147 2.169 1.602 3.571 3.705 3.571 1.179 0 2.109-0.291 2.763-0.865 0.653-0.572 0.995-1.393 1.015-2.44 0-0.024-0.008-0.046-0.025-0.063-0.016-0.016-0.036-0.024-0.059-0.024h-5.87c-0.24 0-0.434-0.201-0.42-0.442 0.013-0.214 0.216-0.388 0.435-0.388h6.361c0.223 0 0.409 0.17 0.424 0.386 0.092 1.384-0.263 2.506-1.055 3.335-0.831 0.869-2.099 1.348-3.569 1.348" fill="#00496d"/></g><g transform="matrix(.53285 0 0 -.53285 59.193 148.66)"><path d="m0 0c-0.357 0.086-0.722 0.129-1.084 0.129-1.533 0-2.808-0.762-3.415-2.04-0.547 1.267-1.85 2.022-3.49 2.022-1.252 0-2.277-0.482-2.89-1.357v0.867c0 0.182-0.15 0.329-0.336 0.329h-1.851c-0.259 0-0.466-0.226-0.43-0.49 0.028-0.202 0.236-0.366 0.444-0.366h1.265v-7.955c0-0.182 0.15-0.329 0.335-0.329h0.239c0.185 0 0.336 0.147 0.336 0.329v5.161c0 1.698 1.161 2.886 2.889 2.955 1.797-0.001 3.051-1.216 3.051-2.955v-5.065c0-0.254 0.231-0.457 0.501-0.421 0.206 0.027 0.372 0.231 0.372 0.435v5.051c0 1.75 1.226 2.973 2.98 2.973 1.793 0 2.997-1.166 2.997-2.902v-5.232c0-0.182 0.15-0.329 0.336-0.329h0.239c0.185 0 0.335 0.147 0.335 0.329v5.274c0 1.823-1.055 3.164-2.823 3.587" fill="#00496d"/></g><g transform="matrix(.53285 0 0 -.53285 68.096 149.97)"><path d="m0 0c-0.732-1.89-0.692-3.713 0.114-5.274 0.139-0.269 0.3-0.531 0.479-0.778 0.929-1.283 2.315-2.135 3.904-2.397 0.163-0.027 0.328-0.047 0.49-0.061 0.178-0.016 0.36-0.024 0.54-0.024 1.251 0 2.452 0.367 3.473 1.061 1.318 0.896 2.189 2.234 2.452 3.767 0.264 1.534-0.112 3.077-1.059 4.347-0.942 1.263-2.337 2.103-3.929 2.366-0.09 0.015-0.182 0.028-0.272 0.039-0.222 0.026-0.451-0.044-0.618-0.19-0.163-0.143-0.256-0.34-0.261-0.555-0.01-0.406 0.287-0.742 0.691-0.791 0.067-0.008 0.134-0.018 0.198-0.029 1.176-0.193 2.208-0.812 2.906-1.742 0.701-0.933 0.981-2.065 0.788-3.188-0.182-1.06-0.774-2.004-1.666-2.658-0.783-0.575-1.718-0.879-2.704-0.879-0.135 0-0.271 0.006-0.406 0.017-0.12 0.011-0.242 0.026-0.361 0.046-1.163 0.191-2.182 0.815-2.868 1.756-0.384 0.526-0.639 1.145-0.739 1.791-0.196 1.27 0.193 2.885 1.04 4.319 0.006 0.011 0.145 0.257 0.37 0.656 1.009 1.787 4.055 7.184 4.317 7.662l0.078 0.23c0.119 0.352-0.035 0.739-0.367 0.918l-0.017 0.01c-0.117 0.062-0.248 0.096-0.38 0.096-0.236 0-0.458-0.102-0.608-0.28l-0.147-0.174-4.586-8.211c-0.293-0.575-0.601-1.202-0.852-1.85" fill="#00496d"/></g><g transform="matrix(.53285 0 0 -.53285 62.813 156.3)"><path d="m0 0 0.021-0.011c0.12-0.063 0.254-0.096 0.389-0.096 0.304 0 0.583 0.163 0.727 0.425l7.948 14.447c0.196 0.357 0.09 0.803-0.247 1.038l-0.011 0.008c-0.115 0.089-0.341 0.154-0.529 0.154h-10.409c-0.388 0-0.711-0.31-0.722-0.692l-0.001-0.029c-0.002-0.132 0.036-0.263 0.108-0.377l2.05-3.382c0.129-0.204 0.359-0.328 0.611-0.328 0.139 0 0.275 0.038 0.396 0.111 0.172 0.106 0.289 0.263 0.336 0.448 0.047 0.186 0.017 0.378-0.086 0.539l-1.379 2.277h7.859l-7.397-13.439c-0.104-0.19-0.126-0.408-0.063-0.615 0.063-0.206 0.205-0.376 0.399-0.478" fill="#00496d"/></g><g transform="matrix(.53285 0 0 -.53285 73.582 156.35)"><path class="underline" d="m0 0h-9.565c-0.463 0-0.837 0.367-0.837 0.82v0.017c0 0.453 0.374 0.82 0.837 0.82h9.565c0.462 0 0.837-0.367 0.837-0.82v-0.017c0-0.453-0.375-0.82-0.837-0.82" fill="#00496d"/></g></g></g></svg>
