<svg id="svg16" xmlns="http://www.w3.org/2000/svg" height="61.227" width="300" version="1.1" viewBox="0 0 300 61.227001">
 <path id="path44-6" style="fill:#fff" d="m276.78-2.0654e-7c-4.6017 0-8.658 1.1721-12.169 3.5167-3.513 2.3451-6.2352 5.818-8.162 10.421-1.9273 4.6032-2.8899 10.206-2.8899 16.806 0 6.5431 0.96257 12.101 2.8899 16.674 1.9268 4.5751 4.6491 8.0204 8.162 10.335 3.5109 2.3165 7.5672 3.4737 12.169 3.4737 7.2109 0 12.884-2.6329 17.019-7.9023 4.1339-5.2679 6.2016-12.825 6.2016-22.668 0-10.074-2.0843-17.703-6.2484-22.885-4.16-5.1819-9.82-7.772-16.97-7.772zm-276.78 0.86697v3.6475h17.16v55.758h4.29v-55.758h17.066l0.46473-3.6475zm58.657 0v59.405h4.3837v-29.53h28.257v29.53h4.3817v-59.405h-4.382v26.404h-28.257v-26.404zm65.372 0v59.405h29.188v-3.474h-24.81v-25.794h20.61v-3.474h-20.61v-23.101h23.781l0.56041-3.5616zm51.663 0v59.405h27.79l0.65217-3.7354h-24.05v-55.67zm48.867 0v59.405h4.3817v-59.405zm52.221 2.6927c5.905 0 10.505 2.2294 13.801 6.6878 3.2947 4.4589 4.9441 11.261 4.9441 20.409 0 9.0903-1.6332 15.866-4.8972 20.323-3.264 4.4595-7.8796 6.6858-13.848 6.6858-5.7206 0-10.259-2.2575-13.616-6.7737-3.3572-4.5162-5.0359-11.23-5.0359-20.147 0-9.0898 1.662-15.895 4.989-20.411 3.3254-4.5157 7.8806-6.7737 13.663-6.7737z"/>
</svg>
