<svg xmlns="http://www.w3.org/2000/svg" version="1.1" viewBox="0 0 70 17">
 <path class="thelio-logo" d="m55.125 0.10352c-0.398 0-0.724 0.12876-0.98 0.38476s-0.385 0.57502-0.385 0.95902 0.129 0.7049 0.385 0.9609c0.256 0.2418 0.582 0.3633 0.98 0.3633 0.412 0 0.746-0.1215 1.002-0.3633 0.256-0.256 0.385-0.5769 0.385-0.9609s-0.129-0.70302-0.385-0.95902-0.59-0.38476-1.002-0.38476zm-5.354 0.64062l-1.962 0.23438v13.546c0 0.783 0.206 1.393 0.619 1.834 0.426 0.427 1.001 0.641 1.726 0.641 0.569 0 1.09-0.129 1.559-0.385l-0.512-1.365c-0.213 0.085-0.456 0.129-0.726 0.129-0.256 0-0.441-0.071-0.555-0.213-0.1-0.142-0.149-0.371-0.149-0.684v-13.738zm-24.019 0.04297l-1.963 0.21289v15.744h1.963v-7.9999c0.398-0.6257 0.826-1.1098 1.281-1.4511 0.455-0.3414 0.974-0.5118 1.557-0.5118s1.023 0.1632 1.322 0.4903c0.313 0.3271 0.471 0.8891 0.471 1.6855v7.787h1.961v-8.0643c0-1.0667-0.29-1.906-0.873-2.5176-0.569-0.6115-1.367-0.916-2.391-0.916-1.337 0-2.446 0.6036-3.328 1.8125v-6.2715zm-14.711 1.2578v1.7285h4.182v12.971h2.027v-12.971l4.074 0.0004 0.213-1.7285h-10.496zm-8.2461 0.4278l-0.4277 3.2421h-1.5781l-0.00004 1.4922h1.3867l-0.5977 4.588h-1.5781v1.473h1.3652l-0.44723 3.476h1.664l0.4473-3.476h3.2852l-0.4473 3.476h1.664l0.4473-3.476h1.6426v-1.473h-1.4297l0.5977-4.588h1.6209v-1.4922h-1.4295l0.4277-3.2421h-1.6641l-0.4277 3.2421h-3.2852l0.4278-3.2421h-1.6641zm37.355 2.7734c-0.952 0-1.783 0.2556-2.494 0.7676-0.697 0.512-1.239 1.2226-1.623 2.1328-0.37 0.896-0.554 1.9275-0.554 3.0935 0 1.792 0.435 3.201 1.302 4.225 0.882 1.024 2.104 1.535 3.668 1.535 1.422 0 2.731-0.47 3.926-1.408l-0.854-1.174c-0.497 0.341-0.974 0.592-1.429 0.748s-0.952 0.234-1.492 0.234c-0.854 0-1.552-0.291-2.092-0.875-0.541-0.583-0.852-1.493-0.938-2.73h7.168c0.029-0.341 0.043-0.675 0.043-1.002 0-1.7351-0.399-3.0949-1.195-4.0762-0.797-0.9813-1.942-1.4707-3.436-1.4707zm24.239 0c-1.053 0-1.956 0.2483-2.709 0.7461-0.754 0.4835-1.331 1.1723-1.729 2.0683-0.398 0.8818-0.597 1.9061-0.597 3.0725 0 1.806 0.442 3.236 1.324 4.289 0.882 1.052 2.111 1.578 3.689 1.578 1.038 0 1.936-0.241 2.69-0.725 0.753-0.497 1.328-1.188 1.726-2.07 0.398-0.896 0.598-1.927 0.598-3.094 0-1.8059-0.441-3.2343-1.322-4.2868-0.868-1.0524-2.092-1.5781-3.67-1.5781zm-10.225 0.2559v11.242h1.963v-11.242h-1.963zm-13.971 1.3007c0.882 0 1.544 0.2919 1.985 0.875s0.662 1.4298 0.662 2.5393v0.127h-5.27c0.143-2.3611 1.016-3.5413 2.623-3.5413zm24.196 0.0215c1.92 0 2.881 1.4285 2.881 4.2868 0 2.873-0.969 4.311-2.903 4.311s-2.9-1.431-2.9-4.289c0-2.8731 0.973-4.3088 2.922-4.3088zm-60.549 0.3828h3.2852l-0.5977 4.588h-3.2851l0.5976-4.588z"/>
</svg>
